<mxfile host="Electron" modified="2024-05-14T13:02:04.566Z" agent="Mozilla/5.0 (Windows NT 10.0; Win64; x64) AppleWebKit/537.36 (KHTML, like Gecko) draw.io/24.4.0 Chrome/120.0.6099.109 Electron/28.1.0 Safari/537.36" etag="_l0Ktvh7yDAooIaTCWBe" version="24.4.0" type="device">
  <diagram name="Pagina-1" id="xlJhvgW3dntGbL7X99_p">
    <mxGraphModel dx="1240" dy="897" grid="1" gridSize="10" guides="1" tooltips="1" connect="1" arrows="1" fold="1" page="0" pageScale="1" pageWidth="827" pageHeight="1169" math="0" shadow="0">
      <root>
        <mxCell id="0" />
        <mxCell id="1" parent="0" />
        <mxCell id="xFyrg9qpgeF3Z5DftNoa-2" value="" style="edgeStyle=orthogonalEdgeStyle;rounded=0;orthogonalLoop=1;jettySize=auto;html=1;endArrow=none;endFill=0;" parent="1" edge="1">
          <mxGeometry relative="1" as="geometry">
            <Array as="points">
              <mxPoint x="-211.82" y="120" />
              <mxPoint x="-211.82" y="120" />
            </Array>
            <mxPoint x="-211.82000000000022" y="90.00999999999999" as="sourcePoint" />
            <mxPoint x="-211.82000000000022" y="212.69967741935488" as="targetPoint" />
          </mxGeometry>
        </mxCell>
        <mxCell id="xFyrg9qpgeF3Z5DftNoa-32" style="edgeStyle=orthogonalEdgeStyle;rounded=0;orthogonalLoop=1;jettySize=auto;html=1;exitX=0;exitY=0.5;exitDx=0;exitDy=0;endArrow=oval;endFill=0;" parent="1" edge="1">
          <mxGeometry relative="1" as="geometry">
            <mxPoint x="-240" y="80" as="targetPoint" />
            <mxPoint x="-220" y="77.1150000000001" as="sourcePoint" />
            <Array as="points">
              <mxPoint x="-220" y="80" />
            </Array>
          </mxGeometry>
        </mxCell>
        <mxCell id="esEqVlL6re1M1a8fyDZB-2" value="Visitatore" style="whiteSpace=wrap;html=1;align=center;" parent="1" vertex="1">
          <mxGeometry x="-220" y="50" width="60" height="40.01" as="geometry" />
        </mxCell>
        <mxCell id="xFyrg9qpgeF3Z5DftNoa-36" style="edgeStyle=orthogonalEdgeStyle;rounded=0;orthogonalLoop=1;jettySize=auto;html=1;exitX=0.25;exitY=0;exitDx=0;exitDy=0;entryX=0.5;entryY=1;entryDx=0;entryDy=0;endArrow=oval;endFill=0;" parent="1" edge="1">
          <mxGeometry relative="1" as="geometry">
            <mxPoint x="42.39000000000032" y="235.6" as="targetPoint" />
            <mxPoint x="38.81999999999994" y="253.10000000000002" as="sourcePoint" />
          </mxGeometry>
        </mxCell>
        <mxCell id="xFyrg9qpgeF3Z5DftNoa-37" style="edgeStyle=orthogonalEdgeStyle;rounded=0;orthogonalLoop=1;jettySize=auto;html=1;exitX=0.967;exitY=0.01;exitDx=0;exitDy=0;entryX=0.25;entryY=1;entryDx=0;entryDy=0;endArrow=oval;endFill=0;exitPerimeter=0;" parent="1" source="esEqVlL6re1M1a8fyDZB-8" edge="1">
          <mxGeometry relative="1" as="geometry">
            <mxPoint x="79.90000000000032" y="235.6" as="targetPoint" />
            <mxPoint x="91.32999999999994" y="253.10000000000002" as="sourcePoint" />
          </mxGeometry>
        </mxCell>
        <mxCell id="xFyrg9qpgeF3Z5DftNoa-3" style="edgeStyle=orthogonalEdgeStyle;rounded=0;orthogonalLoop=1;jettySize=auto;html=1;exitX=0.5;exitY=1;exitDx=0;exitDy=0;entryX=0.5;entryY=0;entryDx=0;entryDy=0;endArrow=none;endFill=0;" parent="1" source="xFyrg9qpgeF3Z5DftNoa-1" target="esEqVlL6re1M1a8fyDZB-29" edge="1">
          <mxGeometry relative="1" as="geometry">
            <Array as="points">
              <mxPoint x="-211.68" y="396.18" />
            </Array>
          </mxGeometry>
        </mxCell>
        <mxCell id="xFyrg9qpgeF3Z5DftNoa-1" value="Creazione" style="shape=rhombus;perimeter=rhombusPerimeter;whiteSpace=wrap;html=1;align=center;" parent="1" vertex="1">
          <mxGeometry x="-250.43" y="209.71" width="77.5" height="45" as="geometry" />
        </mxCell>
        <mxCell id="xFyrg9qpgeF3Z5DftNoa-6" value="Indossa" style="shape=rhombus;perimeter=rhombusPerimeter;whiteSpace=wrap;html=1;align=center;" parent="1" vertex="1">
          <mxGeometry x="-74.31" y="555.13" width="72.5" height="39.75" as="geometry" />
        </mxCell>
        <mxCell id="xFyrg9qpgeF3Z5DftNoa-7" value="Utilizzo" style="shape=rhombus;perimeter=rhombusPerimeter;whiteSpace=wrap;html=1;align=center;" parent="1" vertex="1">
          <mxGeometry x="57" y="596.42" width="63.75" height="39.75" as="geometry" />
        </mxCell>
        <mxCell id="xFyrg9qpgeF3Z5DftNoa-29" value="&lt;font style=&quot;font-size: 8px;&quot;&gt;Nome&lt;/font&gt;" style="text;html=1;align=center;verticalAlign=middle;whiteSpace=wrap;rounded=0;" parent="1" vertex="1">
          <mxGeometry x="-220" y="17.509999999999998" width="25" height="10" as="geometry" />
        </mxCell>
        <mxCell id="xFyrg9qpgeF3Z5DftNoa-31" value="&lt;font style=&quot;font-size: 8px;&quot;&gt;Cognome&lt;/font&gt;" style="text;html=1;align=center;verticalAlign=middle;whiteSpace=wrap;rounded=0;" parent="1" vertex="1">
          <mxGeometry x="-200" y="7.509999999999999" width="60" height="30" as="geometry" />
        </mxCell>
        <mxCell id="xFyrg9qpgeF3Z5DftNoa-34" value="&lt;p style=&quot;line-height: 50%;&quot;&gt;&lt;font style=&quot;font-size: 8px;&quot;&gt;Periodo storico&lt;/font&gt;&lt;/p&gt;" style="text;html=1;align=center;verticalAlign=middle;whiteSpace=wrap;rounded=0;" parent="1" vertex="1">
          <mxGeometry x="64.50999999999999" y="221.81" width="27.56" height="0.29" as="geometry" />
        </mxCell>
        <mxCell id="xFyrg9qpgeF3Z5DftNoa-35" value="&lt;font style=&quot;font-size: 8px;&quot;&gt;Nome&lt;/font&gt;" style="text;html=1;align=center;verticalAlign=middle;whiteSpace=wrap;rounded=0;" parent="1" vertex="1">
          <mxGeometry x="13.499999999999982" y="211.70999999999998" width="60" height="30" as="geometry" />
        </mxCell>
        <mxCell id="IS9MgUI0sy-0iihlmr4d-4" value="&lt;font style=&quot;font-size: 8px;&quot;&gt;Misura&lt;/font&gt;" style="text;html=1;align=center;verticalAlign=middle;whiteSpace=wrap;rounded=1;strokeColor=none;" parent="1" vertex="1">
          <mxGeometry x="331.81" y="61" width="50" height="12" as="geometry" />
        </mxCell>
        <mxCell id="IS9MgUI0sy-0iihlmr4d-5" value="&lt;font style=&quot;font-size: 8px;&quot;&gt;Modello&lt;/font&gt;" style="text;html=1;align=center;verticalAlign=middle;whiteSpace=wrap;rounded=1;strokeColor=none;" parent="1" vertex="1">
          <mxGeometry x="268.37" y="15.010000000000005" width="40" height="20" as="geometry" />
        </mxCell>
        <mxCell id="IS9MgUI0sy-0iihlmr4d-10" value="&lt;font style=&quot;font-size: 8px;&quot;&gt;Marca&lt;/font&gt;" style="text;html=1;align=center;verticalAlign=middle;whiteSpace=wrap;rounded=1;strokeColor=none;glass=0;" parent="1" vertex="1">
          <mxGeometry x="228.93" y="16.299999999999997" width="50" height="15" as="geometry" />
        </mxCell>
        <mxCell id="IS9MgUI0sy-0iihlmr4d-41" value="&lt;font style=&quot;font-size: 8px;&quot;&gt;Punteggio&lt;/font&gt;" style="text;html=1;align=center;verticalAlign=middle;whiteSpace=wrap;rounded=1;strokeColor=none;" parent="1" vertex="1">
          <mxGeometry x="-288.56" y="425.18" width="49" height="23" as="geometry" />
        </mxCell>
        <mxCell id="psAY5yPwDMX2NuFO3N5F-12" value="&lt;font style=&quot;font-size: 9px;&quot;&gt;Descrizione&lt;/font&gt;" style="text;html=1;align=center;verticalAlign=middle;whiteSpace=wrap;rounded=0;" parent="1" vertex="1">
          <mxGeometry x="377.86999999999995" y="300" width="35" height="15" as="geometry" />
        </mxCell>
        <mxCell id="psAY5yPwDMX2NuFO3N5F-13" value="&lt;font style=&quot;font-size: 9px;&quot;&gt;Nome&lt;/font&gt;" style="text;html=1;align=center;verticalAlign=middle;whiteSpace=wrap;rounded=0;" parent="1" vertex="1">
          <mxGeometry x="324.87" y="300" width="35" height="15" as="geometry" />
        </mxCell>
        <mxCell id="sCdLPjGgIY4ofrzn0zne-25" style="edgeStyle=orthogonalEdgeStyle;rounded=0;orthogonalLoop=1;jettySize=auto;html=1;exitX=0.25;exitY=0;exitDx=0;exitDy=0;endArrow=oval;endFill=0;" parent="1" edge="1">
          <mxGeometry relative="1" as="geometry">
            <mxPoint x="374.87333333333345" y="154.73000000000002" as="targetPoint" />
            <mxPoint x="375.0399999999999" y="170.98000000000002" as="sourcePoint" />
          </mxGeometry>
        </mxCell>
        <mxCell id="sCdLPjGgIY4ofrzn0zne-29" style="edgeStyle=orthogonalEdgeStyle;rounded=0;orthogonalLoop=1;jettySize=auto;html=1;exitX=0.75;exitY=0;exitDx=0;exitDy=0;endArrow=oval;endFill=0;" parent="1" edge="1">
          <mxGeometry relative="1" as="geometry">
            <mxPoint x="420.56999999999994" y="154.73000000000002" as="targetPoint" />
            <mxPoint x="422.0699999999999" y="170.98000000000002" as="sourcePoint" />
          </mxGeometry>
        </mxCell>
        <mxCell id="sCdLPjGgIY4ofrzn0zne-9" value="Offerta" style="shape=rhombus;perimeter=rhombusPerimeter;whiteSpace=wrap;html=1;align=center;" parent="1" vertex="1">
          <mxGeometry x="158.44" y="212.14999999999998" width="70" height="45" as="geometry" />
        </mxCell>
        <mxCell id="sCdLPjGgIY4ofrzn0zne-26" value="&lt;font style=&quot;font-size: 8px;&quot;&gt;Nome&lt;/font&gt;" style="text;html=1;align=center;verticalAlign=middle;whiteSpace=wrap;rounded=1;strokeColor=none;" parent="1" vertex="1">
          <mxGeometry x="284.14" y="198.48" width="40" height="20" as="geometry" />
        </mxCell>
        <mxCell id="sCdLPjGgIY4ofrzn0zne-27" value="&lt;font style=&quot;font-size: 8px;&quot;&gt;Descrizione&lt;/font&gt;" style="text;html=1;align=center;verticalAlign=middle;whiteSpace=wrap;rounded=1;strokeColor=none;" parent="1" vertex="1">
          <mxGeometry x="402.85999999999996" y="134.73" width="40" height="20" as="geometry" />
        </mxCell>
        <mxCell id="sCdLPjGgIY4ofrzn0zne-28" value="&lt;font style=&quot;font-size: 8px;&quot;&gt;Durata&lt;/font&gt;" style="text;html=1;align=center;verticalAlign=middle;whiteSpace=wrap;rounded=1;strokeColor=none;" parent="1" vertex="1">
          <mxGeometry x="453.86" y="166.98000000000002" width="40" height="20" as="geometry" />
        </mxCell>
        <mxCell id="sCdLPjGgIY4ofrzn0zne-32" value="&lt;font style=&quot;font-size: 8px;&quot;&gt;(0,N)&lt;/font&gt;" style="text;html=1;align=center;verticalAlign=middle;whiteSpace=wrap;rounded=1;strokeColor=none;glass=0;" parent="1" vertex="1">
          <mxGeometry x="-56.74" y="239.70999999999998" width="50" height="15" as="geometry" />
        </mxCell>
        <mxCell id="sCdLPjGgIY4ofrzn0zne-36" value="&lt;font style=&quot;font-size: 8px;&quot;&gt;(1,1)&lt;/font&gt;" style="text;html=1;align=center;verticalAlign=middle;whiteSpace=wrap;rounded=1;strokeColor=none;glass=0;" parent="1" vertex="1">
          <mxGeometry x="-142.17" y="239.71" width="50" height="15" as="geometry" />
        </mxCell>
        <mxCell id="sCdLPjGgIY4ofrzn0zne-37" value="&lt;font style=&quot;font-size: 8px;&quot;&gt;(1,N)&lt;/font&gt;" style="text;html=1;align=center;verticalAlign=middle;whiteSpace=wrap;rounded=1;strokeColor=none;glass=0;" parent="1" vertex="1">
          <mxGeometry x="-225.11" y="194.71" width="50" height="15" as="geometry" />
        </mxCell>
        <mxCell id="sCdLPjGgIY4ofrzn0zne-38" value="&lt;font style=&quot;font-size: 8px;&quot;&gt;(1,1)&lt;/font&gt;" style="text;html=1;align=center;verticalAlign=middle;whiteSpace=wrap;rounded=1;strokeColor=none;glass=0;" parent="1" vertex="1">
          <mxGeometry x="-225.11" y="251.08" width="50" height="15" as="geometry" />
        </mxCell>
        <mxCell id="sCdLPjGgIY4ofrzn0zne-39" value="&lt;font style=&quot;font-size: 8px;&quot;&gt;(0,N)&lt;/font&gt;" style="text;html=1;align=center;verticalAlign=middle;whiteSpace=wrap;rounded=1;strokeColor=none;glass=0;" parent="1" vertex="1">
          <mxGeometry x="-76.77000000000001" y="541.13" width="50" height="15" as="geometry" />
        </mxCell>
        <mxCell id="sCdLPjGgIY4ofrzn0zne-40" value="&lt;font style=&quot;font-size: 8px;&quot;&gt;(1,1)&lt;/font&gt;" style="text;html=1;align=center;verticalAlign=middle;whiteSpace=wrap;rounded=1;strokeColor=none;glass=0;" parent="1" vertex="1">
          <mxGeometry x="-115.67000000000002" y="556.13" width="50" height="15" as="geometry" />
        </mxCell>
        <mxCell id="sCdLPjGgIY4ofrzn0zne-41" value="&lt;font style=&quot;font-size: 8px;&quot;&gt;(0,N)&lt;/font&gt;" style="text;html=1;align=center;verticalAlign=middle;whiteSpace=wrap;rounded=1;strokeColor=none;glass=0;" parent="1" vertex="1">
          <mxGeometry x="50.160000000000004" y="584.67" width="50" height="15" as="geometry" />
        </mxCell>
        <mxCell id="sCdLPjGgIY4ofrzn0zne-42" value="&lt;font style=&quot;font-size: 8px;&quot;&gt;(1,1&lt;/font&gt;&lt;span style=&quot;font-size: 8px; background-color: initial;&quot;&gt;)&lt;/span&gt;" style="text;html=1;align=center;verticalAlign=middle;whiteSpace=wrap;rounded=1;strokeColor=none;glass=0;" parent="1" vertex="1">
          <mxGeometry x="22.439999999999984" y="600.17" width="50" height="15" as="geometry" />
        </mxCell>
        <mxCell id="sCdLPjGgIY4ofrzn0zne-49" value="&lt;span style=&quot;font-size: 8px;&quot;&gt;(0,N)&lt;/span&gt;" style="text;html=1;align=center;verticalAlign=middle;whiteSpace=wrap;rounded=1;strokeColor=none;glass=0;" parent="1" vertex="1">
          <mxGeometry x="126.88" y="217.20999999999998" width="50" height="15" as="geometry" />
        </mxCell>
        <mxCell id="sCdLPjGgIY4ofrzn0zne-50" value="&lt;span style=&quot;font-size: 8px;&quot;&gt;(1,1)&lt;/span&gt;" style="text;html=1;align=center;verticalAlign=middle;whiteSpace=wrap;rounded=1;strokeColor=none;glass=0;" parent="1" vertex="1">
          <mxGeometry x="158" y="199.65999999999997" width="50" height="15" as="geometry" />
        </mxCell>
        <mxCell id="-KCrA8Snv7a03eBKMKKP-2" value="&lt;font style=&quot;font-size: 8px;&quot;&gt;Luogo&lt;/font&gt;" style="text;html=1;align=center;verticalAlign=middle;whiteSpace=wrap;rounded=1;strokeColor=none;" parent="1" vertex="1">
          <mxGeometry x="452.86" y="180.48000000000002" width="40" height="20" as="geometry" />
        </mxCell>
        <mxCell id="-KCrA8Snv7a03eBKMKKP-9" style="edgeStyle=orthogonalEdgeStyle;rounded=0;orthogonalLoop=1;jettySize=auto;html=1;exitX=0.5;exitY=1;exitDx=0;exitDy=0;" parent="1" source="sCdLPjGgIY4ofrzn0zne-49" target="sCdLPjGgIY4ofrzn0zne-49" edge="1">
          <mxGeometry relative="1" as="geometry" />
        </mxCell>
        <mxCell id="O113cSQGS3Kzy_eXXIUR-2" value="&lt;font style=&quot;font-size: 8px;&quot;&gt;(1,1)&lt;/font&gt;" style="text;html=1;align=center;verticalAlign=middle;whiteSpace=wrap;rounded=1;strokeColor=none;glass=0;" parent="1" vertex="1">
          <mxGeometry x="219.31" y="331.68" width="50" height="15" as="geometry" />
        </mxCell>
        <mxCell id="Uv16PW8lFVU73aN1idEa-114" style="edgeStyle=orthogonalEdgeStyle;rounded=0;orthogonalLoop=1;jettySize=auto;html=1;endArrow=none;endFill=0;" parent="1" source="O113cSQGS3Kzy_eXXIUR-4" target="KGt15_m-9OCbbfXcBj1e-68" edge="1">
          <mxGeometry relative="1" as="geometry" />
        </mxCell>
        <mxCell id="O113cSQGS3Kzy_eXXIUR-7" value="&lt;span style=&quot;font-size: 8px;&quot;&gt;(1,N)&lt;/span&gt;" style="text;html=1;align=center;verticalAlign=middle;whiteSpace=wrap;rounded=1;strokeColor=none;glass=0;" parent="1" vertex="1">
          <mxGeometry x="122.43999999999998" y="330.18" width="50" height="15" as="geometry" />
        </mxCell>
        <mxCell id="6Y740NKRe_7SumzculxD-2" value="&lt;font style=&quot;font-size: 8px;&quot;&gt;CF&lt;/font&gt;" style="text;html=1;align=center;verticalAlign=middle;whiteSpace=wrap;rounded=0;" parent="1" vertex="1">
          <mxGeometry x="-260" y="54.379999999999995" width="20" height="10" as="geometry" />
        </mxCell>
        <mxCell id="6Y740NKRe_7SumzculxD-4" style="edgeStyle=orthogonalEdgeStyle;rounded=0;orthogonalLoop=1;jettySize=auto;html=1;exitX=0;exitY=0;exitDx=0;exitDy=0;endArrow=oval;endFill=0;" parent="1" edge="1">
          <mxGeometry relative="1" as="geometry">
            <mxPoint x="-210" y="32" as="targetPoint" />
            <mxPoint x="-210" y="50" as="sourcePoint" />
            <Array as="points" />
          </mxGeometry>
        </mxCell>
        <mxCell id="6Y740NKRe_7SumzculxD-5" style="edgeStyle=orthogonalEdgeStyle;rounded=0;orthogonalLoop=1;jettySize=auto;html=1;exitX=0;exitY=0;exitDx=0;exitDy=0;endArrow=oval;endFill=0;" parent="1" edge="1">
          <mxGeometry relative="1" as="geometry">
            <mxPoint x="-170" y="32" as="targetPoint" />
            <mxPoint x="-170" y="50" as="sourcePoint" />
            <Array as="points" />
          </mxGeometry>
        </mxCell>
        <mxCell id="6Y740NKRe_7SumzculxD-6" value="&lt;font style=&quot;font-size: 8px;&quot;&gt;Email&lt;/font&gt;" style="text;html=1;align=center;verticalAlign=middle;whiteSpace=wrap;rounded=0;" parent="1" vertex="1">
          <mxGeometry x="-270" y="76" width="30" height="7" as="geometry" />
        </mxCell>
        <mxCell id="6Y740NKRe_7SumzculxD-8" style="edgeStyle=orthogonalEdgeStyle;rounded=0;orthogonalLoop=1;jettySize=auto;html=1;exitX=0;exitY=0.25;exitDx=0;exitDy=0;endArrow=oval;endFill=1;" parent="1" source="esEqVlL6re1M1a8fyDZB-2" edge="1">
          <mxGeometry relative="1" as="geometry">
            <mxPoint x="-240" y="60" as="targetPoint" />
            <mxPoint x="-285" y="38.760000000000005" as="sourcePoint" />
            <Array as="points" />
          </mxGeometry>
        </mxCell>
        <mxCell id="6Y740NKRe_7SumzculxD-16" style="edgeStyle=orthogonalEdgeStyle;rounded=0;orthogonalLoop=1;jettySize=auto;html=1;exitX=0;exitY=0.25;exitDx=0;exitDy=0;endArrow=oval;endFill=0;" parent="1" edge="1">
          <mxGeometry relative="1" as="geometry">
            <mxPoint x="-261.68" y="406.18" as="targetPoint" />
            <mxPoint x="-241.68" y="405.95" as="sourcePoint" />
            <Array as="points">
              <mxPoint x="-251.68" y="406.18" />
            </Array>
          </mxGeometry>
        </mxCell>
        <mxCell id="6Y740NKRe_7SumzculxD-17" value="&lt;font style=&quot;font-size: 8px;&quot;&gt;Nickname&lt;/font&gt;" style="text;html=1;align=center;verticalAlign=middle;whiteSpace=wrap;rounded=1;strokeColor=none;" parent="1" vertex="1">
          <mxGeometry x="-301.68" y="392.18" width="30" height="23.5" as="geometry" />
        </mxCell>
        <mxCell id="6Y740NKRe_7SumzculxD-43" value="" style="endArrow=none;html=1;rounded=0;" parent="1" edge="1">
          <mxGeometry width="50" height="50" relative="1" as="geometry">
            <mxPoint x="-310" y="416.18" as="sourcePoint" />
            <mxPoint x="-241.68" y="416.18" as="targetPoint" />
          </mxGeometry>
        </mxCell>
        <mxCell id="6Y740NKRe_7SumzculxD-44" value="" style="endArrow=none;html=1;rounded=0;" parent="1" edge="1">
          <mxGeometry width="50" height="50" relative="1" as="geometry">
            <mxPoint x="-290.4" y="426.18" as="sourcePoint" />
            <mxPoint x="-241.68" y="426.18" as="targetPoint" />
          </mxGeometry>
        </mxCell>
        <mxCell id="6Y740NKRe_7SumzculxD-45" value="" style="endArrow=none;html=1;rounded=0;" parent="1" edge="1">
          <mxGeometry width="50" height="50" relative="1" as="geometry">
            <mxPoint x="-310" y="660.085137549867" as="sourcePoint" />
            <mxPoint x="-309.88" y="415.7" as="targetPoint" />
          </mxGeometry>
        </mxCell>
        <mxCell id="6Y740NKRe_7SumzculxD-46" value="" style="endArrow=none;html=1;rounded=0;" parent="1" edge="1">
          <mxGeometry width="50" height="50" relative="1" as="geometry">
            <mxPoint x="-290" y="575.5" as="sourcePoint" />
            <mxPoint x="-289.88" y="426" as="targetPoint" />
          </mxGeometry>
        </mxCell>
        <mxCell id="6Y740NKRe_7SumzculxD-47" value="" style="endArrow=none;html=1;rounded=0;entryX=0;entryY=0.5;entryDx=0;entryDy=0;" parent="1" target="xFyrg9qpgeF3Z5DftNoa-6" edge="1">
          <mxGeometry width="50" height="50" relative="1" as="geometry">
            <mxPoint x="-290" y="575" as="sourcePoint" />
            <mxPoint x="35.63" y="570.75" as="targetPoint" />
          </mxGeometry>
        </mxCell>
        <mxCell id="6Y740NKRe_7SumzculxD-48" value="" style="endArrow=none;html=1;rounded=0;entryX=0;entryY=0.5;entryDx=0;entryDy=0;" parent="1" target="xFyrg9qpgeF3Z5DftNoa-7" edge="1">
          <mxGeometry width="50" height="50" relative="1" as="geometry">
            <mxPoint x="-300" y="617" as="sourcePoint" />
            <mxPoint x="244.38" y="618" as="targetPoint" />
          </mxGeometry>
        </mxCell>
        <mxCell id="6Y740NKRe_7SumzculxD-64" value="" style="endArrow=none;html=1;rounded=0;" parent="1" edge="1">
          <mxGeometry width="50" height="50" relative="1" as="geometry">
            <mxPoint x="47" y="345.5" as="sourcePoint" />
            <mxPoint x="47.43999999999999" y="280" as="targetPoint" />
          </mxGeometry>
        </mxCell>
        <mxCell id="6Y740NKRe_7SumzculxD-76" value="" style="endArrow=none;html=1;rounded=0;entryX=0.543;entryY=0.997;entryDx=0;entryDy=0;entryPerimeter=0;exitX=0.5;exitY=0;exitDx=0;exitDy=0;" parent="1" source="xFyrg9qpgeF3Z5DftNoa-6" edge="1">
          <mxGeometry width="50" height="50" relative="1" as="geometry">
            <mxPoint x="-38" y="550" as="sourcePoint" />
            <mxPoint x="-37.957499999999996" y="488.6900000000001" as="targetPoint" />
          </mxGeometry>
        </mxCell>
        <mxCell id="KGt15_m-9OCbbfXcBj1e-8" value="&lt;font style=&quot;font-size: 8px;&quot;&gt;(1,N)&lt;/font&gt;" style="text;html=1;align=center;verticalAlign=middle;whiteSpace=wrap;rounded=1;strokeColor=none;glass=0;" parent="1" vertex="1">
          <mxGeometry x="-17.37000000000002" y="289.20000000000005" width="50" height="15" as="geometry" />
        </mxCell>
        <mxCell id="KGt15_m-9OCbbfXcBj1e-15" value="" style="endArrow=none;html=1;rounded=0;exitX=1;exitY=0.5;exitDx=0;exitDy=0;" parent="1" source="esEqVlL6re1M1a8fyDZB-2" edge="1">
          <mxGeometry width="50" height="50" relative="1" as="geometry">
            <mxPoint x="-70" y="60" as="sourcePoint" />
            <mxPoint x="-20" y="70" as="targetPoint" />
          </mxGeometry>
        </mxCell>
        <mxCell id="KGt15_m-9OCbbfXcBj1e-16" value="" style="endArrow=none;html=1;rounded=0;exitX=1;exitY=0.5;exitDx=0;exitDy=0;entryX=0;entryY=0.5;entryDx=0;entryDy=0;" parent="1" target="esEqVlL6re1M1a8fyDZB-7" edge="1">
          <mxGeometry width="50" height="50" relative="1" as="geometry">
            <mxPoint x="46.88000000000011" y="70.01499999999987" as="sourcePoint" />
            <mxPoint x="120" y="-10" as="targetPoint" />
          </mxGeometry>
        </mxCell>
        <mxCell id="KGt15_m-9OCbbfXcBj1e-27" style="edgeStyle=orthogonalEdgeStyle;rounded=0;orthogonalLoop=1;jettySize=auto;html=1;exitX=0;exitY=0;exitDx=0;exitDy=0;endArrow=oval;endFill=1;" parent="1" edge="1">
          <mxGeometry relative="1" as="geometry">
            <mxPoint x="200" y="40" as="targetPoint" />
            <mxPoint x="221.88" y="51.25" as="sourcePoint" />
            <Array as="points">
              <mxPoint x="222" y="40" />
              <mxPoint x="222" y="40" />
            </Array>
          </mxGeometry>
        </mxCell>
        <mxCell id="KGt15_m-9OCbbfXcBj1e-28" value="&lt;font style=&quot;font-size: 8px;&quot;&gt;Numero di serie&lt;/font&gt;" style="text;html=1;align=center;verticalAlign=middle;whiteSpace=wrap;rounded=1;strokeColor=none;glass=0;" parent="1" vertex="1">
          <mxGeometry x="163.76" y="27.51" width="65.62" height="7.5" as="geometry" />
        </mxCell>
        <mxCell id="KGt15_m-9OCbbfXcBj1e-29" style="edgeStyle=orthogonalEdgeStyle;rounded=0;orthogonalLoop=1;jettySize=auto;html=1;exitX=0;exitY=0;exitDx=0;exitDy=0;endArrow=oval;endFill=0;" parent="1" edge="1">
          <mxGeometry relative="1" as="geometry">
            <mxPoint x="253.54" y="35.01" as="targetPoint" />
            <mxPoint x="253.54" y="53.01" as="sourcePoint" />
            <Array as="points" />
          </mxGeometry>
        </mxCell>
        <mxCell id="KGt15_m-9OCbbfXcBj1e-30" style="edgeStyle=orthogonalEdgeStyle;rounded=0;orthogonalLoop=1;jettySize=auto;html=1;exitX=0;exitY=0;exitDx=0;exitDy=0;endArrow=oval;endFill=0;" parent="1" edge="1">
          <mxGeometry relative="1" as="geometry">
            <mxPoint x="288.26" y="35.01" as="targetPoint" />
            <mxPoint x="288.26" y="53.01" as="sourcePoint" />
            <Array as="points" />
          </mxGeometry>
        </mxCell>
        <mxCell id="KGt15_m-9OCbbfXcBj1e-31" style="edgeStyle=orthogonalEdgeStyle;rounded=0;orthogonalLoop=1;jettySize=auto;html=1;exitX=1;exitY=0.5;exitDx=0;exitDy=0;endArrow=oval;endFill=0;" parent="1" edge="1">
          <mxGeometry relative="1" as="geometry">
            <mxPoint x="316.43" y="68.67" as="sourcePoint" />
            <mxPoint x="339.55" y="68.67" as="targetPoint" />
          </mxGeometry>
        </mxCell>
        <mxCell id="KGt15_m-9OCbbfXcBj1e-32" style="edgeStyle=orthogonalEdgeStyle;rounded=0;orthogonalLoop=1;jettySize=auto;html=1;exitX=1;exitY=0.5;exitDx=0;exitDy=0;endArrow=oval;endFill=0;" parent="1" edge="1">
          <mxGeometry relative="1" as="geometry">
            <mxPoint x="316.88" y="54.38" as="sourcePoint" />
            <mxPoint x="340" y="54.38" as="targetPoint" />
          </mxGeometry>
        </mxCell>
        <mxCell id="KGt15_m-9OCbbfXcBj1e-33" value="&lt;font style=&quot;font-size: 8px;&quot;&gt;Tecnologia&lt;/font&gt;" style="text;html=1;align=center;verticalAlign=middle;whiteSpace=wrap;rounded=1;strokeColor=none;" parent="1" vertex="1">
          <mxGeometry x="341.88" y="43.379999999999995" width="46" height="19" as="geometry" />
        </mxCell>
        <mxCell id="KGt15_m-9OCbbfXcBj1e-48" value="&lt;p style=&quot;line-height: 70%;&quot;&gt;&lt;font style=&quot;font-size: 9px;&quot;&gt;Area Geografica&lt;/font&gt;&lt;/p&gt;" style="text;html=1;align=center;verticalAlign=middle;whiteSpace=wrap;rounded=0;" parent="1" vertex="1">
          <mxGeometry x="-27.74000000000002" y="300" width="60" height="30" as="geometry" />
        </mxCell>
        <mxCell id="KGt15_m-9OCbbfXcBj1e-53" style="edgeStyle=orthogonalEdgeStyle;rounded=0;orthogonalLoop=1;jettySize=auto;html=1;exitX=0.25;exitY=1;exitDx=0;exitDy=0;endArrow=oval;endFill=0;" parent="1" edge="1">
          <mxGeometry relative="1" as="geometry">
            <mxPoint x="19.209999999999997" y="283.1" as="sourcePoint" />
            <mxPoint x="20.3" y="308.6" as="targetPoint" />
          </mxGeometry>
        </mxCell>
        <mxCell id="KGt15_m-9OCbbfXcBj1e-54" value="" style="endArrow=none;html=1;rounded=0;exitX=1;exitY=0.25;exitDx=0;exitDy=0;entryX=0;entryY=0.5;entryDx=0;entryDy=0;" parent="1" source="esEqVlL6re1M1a8fyDZB-8" target="sCdLPjGgIY4ofrzn0zne-9" edge="1">
          <mxGeometry width="50" height="50" relative="1" as="geometry">
            <mxPoint x="130.38" y="288.6" as="sourcePoint" />
            <mxPoint x="180.38" y="238.6" as="targetPoint" />
            <Array as="points">
              <mxPoint x="140" y="260" />
              <mxPoint x="140" y="235" />
            </Array>
          </mxGeometry>
        </mxCell>
        <mxCell id="KGt15_m-9OCbbfXcBj1e-66" style="edgeStyle=orthogonalEdgeStyle;rounded=0;orthogonalLoop=1;jettySize=auto;html=1;exitX=1;exitY=0.5;exitDx=0;exitDy=0;endArrow=oval;endFill=0;" parent="1" edge="1">
          <mxGeometry relative="1" as="geometry">
            <mxPoint x="432.86" y="178.78" as="sourcePoint" />
            <mxPoint x="455.98" y="178.78" as="targetPoint" />
          </mxGeometry>
        </mxCell>
        <mxCell id="KGt15_m-9OCbbfXcBj1e-67" style="edgeStyle=orthogonalEdgeStyle;rounded=0;orthogonalLoop=1;jettySize=auto;html=1;exitX=1;exitY=0.5;exitDx=0;exitDy=0;endArrow=oval;endFill=0;" parent="1" edge="1">
          <mxGeometry relative="1" as="geometry">
            <mxPoint x="432.86" y="192.48000000000002" as="sourcePoint" />
            <mxPoint x="455.86" y="192.48000000000002" as="targetPoint" />
            <Array as="points">
              <mxPoint x="448.86" y="192.48000000000002" />
            </Array>
          </mxGeometry>
        </mxCell>
        <mxCell id="KGt15_m-9OCbbfXcBj1e-70" value="" style="endArrow=none;html=1;rounded=0;" parent="1" edge="1">
          <mxGeometry width="50" height="50" relative="1" as="geometry">
            <mxPoint x="85" y="280" as="sourcePoint" />
            <mxPoint x="128.91000000000003" y="280" as="targetPoint" />
          </mxGeometry>
        </mxCell>
        <mxCell id="KGt15_m-9OCbbfXcBj1e-71" style="edgeStyle=orthogonalEdgeStyle;rounded=0;orthogonalLoop=1;jettySize=auto;html=1;exitX=0.75;exitY=0;exitDx=0;exitDy=0;endArrow=oval;endFill=0;" parent="1" edge="1">
          <mxGeometry relative="1" as="geometry">
            <mxPoint x="344.61999999999995" y="333.24" as="sourcePoint" />
            <mxPoint x="342.61999999999995" y="317.24" as="targetPoint" />
          </mxGeometry>
        </mxCell>
        <mxCell id="KGt15_m-9OCbbfXcBj1e-72" style="edgeStyle=orthogonalEdgeStyle;rounded=0;orthogonalLoop=1;jettySize=auto;html=1;exitX=0.75;exitY=0;exitDx=0;exitDy=0;endArrow=oval;endFill=0;" parent="1" edge="1">
          <mxGeometry relative="1" as="geometry">
            <mxPoint x="394.61999999999995" y="333.25" as="sourcePoint" />
            <mxPoint x="392.61999999999995" y="317.25" as="targetPoint" />
          </mxGeometry>
        </mxCell>
        <mxCell id="KGt15_m-9OCbbfXcBj1e-87" value="" style="endArrow=none;html=1;rounded=0;" parent="1" edge="1">
          <mxGeometry width="50" height="50" relative="1" as="geometry">
            <mxPoint x="333.07" y="452" as="sourcePoint" />
            <mxPoint x="333.07" y="362" as="targetPoint" />
          </mxGeometry>
        </mxCell>
        <mxCell id="KGt15_m-9OCbbfXcBj1e-90" value="" style="endArrow=none;html=1;rounded=0;exitX=0.5;exitY=1;exitDx=0;exitDy=0;" parent="1" source="yjBL0NTRzS2PuPFi7aJE-12" edge="1">
          <mxGeometry width="50" height="50" relative="1" as="geometry">
            <mxPoint x="85.89818115867915" y="520.425486381323" as="sourcePoint" />
            <mxPoint x="333.31" y="540" as="targetPoint" />
          </mxGeometry>
        </mxCell>
        <mxCell id="sCdLPjGgIY4ofrzn0zne-51" value="&lt;span style=&quot;font-size: 8px;&quot;&gt;(1,N)&lt;/span&gt;" style="text;html=1;align=center;verticalAlign=middle;whiteSpace=wrap;rounded=1;strokeColor=none;glass=0;" parent="1" vertex="1">
          <mxGeometry x="324.87" y="432.9" width="50" height="15.277237354085603" as="geometry" />
        </mxCell>
        <mxCell id="psAY5yPwDMX2NuFO3N5F-20" value="&lt;font style=&quot;font-size: 9px;&quot;&gt;Nome&lt;/font&gt;" style="text;html=1;align=center;verticalAlign=middle;whiteSpace=wrap;rounded=0;" parent="1" vertex="1">
          <mxGeometry x="331.43" y="510.37101167315177" width="40" height="17.314202334630348" as="geometry" />
        </mxCell>
        <mxCell id="psAY5yPwDMX2NuFO3N5F-21" value="&lt;font style=&quot;font-size: 9px;&quot;&gt;Provenienza&lt;/font&gt;" style="text;html=1;align=center;verticalAlign=middle;whiteSpace=wrap;rounded=0;" parent="1" vertex="1">
          <mxGeometry x="276.43" y="510.37101167315177" width="40" height="17.314202334630348" as="geometry" />
        </mxCell>
        <mxCell id="psAY5yPwDMX2NuFO3N5F-22" value="&lt;font style=&quot;font-size: 9px;&quot;&gt;Codice&lt;/font&gt;" style="text;html=1;align=center;verticalAlign=middle;whiteSpace=wrap;rounded=0;" parent="1" vertex="1">
          <mxGeometry x="219.31" y="542" width="40" height="8" as="geometry" />
        </mxCell>
        <mxCell id="psAY5yPwDMX2NuFO3N5F-24" value="&lt;font style=&quot;font-size: 9px;&quot;&gt;Datazione&lt;/font&gt;" style="text;html=1;align=center;verticalAlign=middle;whiteSpace=wrap;rounded=0;" parent="1" vertex="1">
          <mxGeometry x="404.31" y="536" width="40" height="17.314202334630348" as="geometry" />
        </mxCell>
        <mxCell id="psAY5yPwDMX2NuFO3N5F-25" value="&lt;p style=&quot;line-height: 77%;&quot;&gt;&lt;font style=&quot;font-size: 9px;&quot;&gt;Significato Storico&lt;/font&gt;&lt;/p&gt;" style="text;html=1;align=center;verticalAlign=middle;whiteSpace=wrap;rounded=0;spacing=2;spacingTop=0;" parent="1" vertex="1">
          <mxGeometry x="271.81" y="596.9996108949416" width="55" height="17.314202334630348" as="geometry" />
        </mxCell>
        <mxCell id="psAY5yPwDMX2NuFO3N5F-27" style="edgeStyle=orthogonalEdgeStyle;rounded=0;orthogonalLoop=1;jettySize=auto;html=1;exitX=0.75;exitY=0;exitDx=0;exitDy=0;entryX=0.614;entryY=1.108;entryDx=0;entryDy=0;entryPerimeter=0;endArrow=oval;endFill=0;" parent="1" source="esEqVlL6re1M1a8fyDZB-14" target="psAY5yPwDMX2NuFO3N5F-20" edge="1">
          <mxGeometry relative="1" as="geometry" />
        </mxCell>
        <mxCell id="psAY5yPwDMX2NuFO3N5F-28" style="edgeStyle=orthogonalEdgeStyle;rounded=0;orthogonalLoop=1;jettySize=auto;html=1;exitX=0.25;exitY=0;exitDx=0;exitDy=0;entryX=0.842;entryY=1.009;entryDx=0;entryDy=0;entryPerimeter=0;endArrow=oval;endFill=0;" parent="1" source="esEqVlL6re1M1a8fyDZB-14" target="psAY5yPwDMX2NuFO3N5F-21" edge="1">
          <mxGeometry relative="1" as="geometry" />
        </mxCell>
        <mxCell id="psAY5yPwDMX2NuFO3N5F-32" style="edgeStyle=orthogonalEdgeStyle;rounded=0;orthogonalLoop=1;jettySize=auto;html=1;exitX=0.75;exitY=1;exitDx=0;exitDy=0;entryX=0.578;entryY=0.124;entryDx=0;entryDy=0;entryPerimeter=0;endArrow=oval;endFill=0;" parent="1" source="esEqVlL6re1M1a8fyDZB-14" edge="1">
          <mxGeometry relative="1" as="geometry">
            <mxPoint x="356.4299999999999" y="592.4688482490272" as="targetPoint" />
          </mxGeometry>
        </mxCell>
        <mxCell id="sCdLPjGgIY4ofrzn0zne-52" value="&lt;span style=&quot;font-size: 8px;&quot;&gt;(1,1)&lt;/span&gt;" style="text;html=1;align=center;verticalAlign=middle;whiteSpace=wrap;rounded=1;strokeColor=none;glass=0;" parent="1" vertex="1">
          <mxGeometry x="327.86999999999995" y="491.8613618677043" width="50" height="15.277237354085603" as="geometry" />
        </mxCell>
        <mxCell id="KGt15_m-9OCbbfXcBj1e-92" value="" style="endArrow=none;html=1;rounded=0;entryX=-0.006;entryY=0.815;entryDx=0;entryDy=0;entryPerimeter=0;" parent="1" target="esEqVlL6re1M1a8fyDZB-29" edge="1">
          <mxGeometry width="50" height="50" relative="1" as="geometry">
            <mxPoint x="-300.5" y="420.68" as="sourcePoint" />
            <mxPoint x="-328.56" y="439.18" as="targetPoint" />
          </mxGeometry>
        </mxCell>
        <mxCell id="KGt15_m-9OCbbfXcBj1e-93" value="" style="endArrow=none;html=1;rounded=0;" parent="1" edge="1">
          <mxGeometry width="50" height="50" relative="1" as="geometry">
            <mxPoint x="-300" y="617.5" as="sourcePoint" />
            <mxPoint x="-300" y="420.43" as="targetPoint" />
          </mxGeometry>
        </mxCell>
        <mxCell id="KGt15_m-9OCbbfXcBj1e-94" value="" style="endArrow=none;html=1;rounded=0;" parent="1" source="QMaH3NDAXjiI4MQNCzqP-25" edge="1">
          <mxGeometry width="50" height="50" relative="1" as="geometry">
            <mxPoint x="-310.5" y="660" as="sourcePoint" />
            <mxPoint x="330" y="660" as="targetPoint" />
            <Array as="points">
              <mxPoint x="100" y="660" />
            </Array>
          </mxGeometry>
        </mxCell>
        <mxCell id="KGt15_m-9OCbbfXcBj1e-96" style="edgeStyle=orthogonalEdgeStyle;rounded=0;orthogonalLoop=1;jettySize=auto;html=1;endArrow=oval;endFill=1;" parent="1" edge="1">
          <mxGeometry relative="1" as="geometry">
            <mxPoint x="280.93" y="548.07" as="sourcePoint" />
            <mxPoint x="258.93" y="547.82" as="targetPoint" />
            <Array as="points">
              <mxPoint x="280.93" y="548.07" />
              <mxPoint x="281.93" y="548.07" />
            </Array>
          </mxGeometry>
        </mxCell>
        <mxCell id="KGt15_m-9OCbbfXcBj1e-99" value="&lt;font style=&quot;font-size: 9px;&quot;&gt;Rarità&lt;/font&gt;" style="text;html=1;align=center;verticalAlign=middle;whiteSpace=wrap;rounded=0;" parent="1" vertex="1">
          <mxGeometry x="336.81" y="590.9018871595331" width="40" height="17.314202334630348" as="geometry" />
        </mxCell>
        <mxCell id="KGt15_m-9OCbbfXcBj1e-102" style="edgeStyle=orthogonalEdgeStyle;rounded=0;orthogonalLoop=1;jettySize=auto;html=1;exitX=0.75;exitY=1;exitDx=0;exitDy=0;entryX=0.578;entryY=0.124;entryDx=0;entryDy=0;entryPerimeter=0;endArrow=oval;endFill=0;" parent="1" edge="1">
          <mxGeometry relative="1" as="geometry">
            <mxPoint x="299.2" y="581.66" as="sourcePoint" />
            <mxPoint x="299.3199999999999" y="592.1288482490272" as="targetPoint" />
          </mxGeometry>
        </mxCell>
        <mxCell id="gRMJBaIaPO6nrwJoSVO4-1" style="edgeStyle=orthogonalEdgeStyle;rounded=0;orthogonalLoop=1;jettySize=auto;html=1;exitX=0.053;exitY=1.011;exitDx=0;exitDy=0;endArrow=oval;endFill=0;exitPerimeter=0;" parent="1" edge="1">
          <mxGeometry relative="1" as="geometry">
            <mxPoint x="-238.56" y="438.85" as="targetPoint" />
            <mxPoint x="-228.49999999999994" y="426.18" as="sourcePoint" />
            <Array as="points">
              <mxPoint x="-228.56" y="438.85" />
            </Array>
          </mxGeometry>
        </mxCell>
        <mxCell id="QMaH3NDAXjiI4MQNCzqP-11" value="&lt;span style=&quot;font-size: 8px;&quot;&gt;(0,N)&lt;/span&gt;" style="text;html=1;align=center;verticalAlign=middle;whiteSpace=wrap;rounded=1;strokeColor=none;glass=0;" parent="1" vertex="1">
          <mxGeometry x="-241.67999999999995" y="647.26" width="22.5" height="6.75" as="geometry" />
        </mxCell>
        <mxCell id="QMaH3NDAXjiI4MQNCzqP-12" value="&lt;font style=&quot;font-size: 8px;&quot;&gt;(0,N)&lt;/font&gt;" style="text;html=1;align=center;verticalAlign=middle;whiteSpace=wrap;rounded=1;strokeColor=none;glass=0;" parent="1" vertex="1">
          <mxGeometry x="60.94999999999999" y="647.1599999999999" width="22.5" height="6.75" as="geometry" />
        </mxCell>
        <mxCell id="QMaH3NDAXjiI4MQNCzqP-26" value="&lt;span style=&quot;font-size: 8px;&quot;&gt;(1,1)&lt;/span&gt;" style="text;html=1;align=center;verticalAlign=middle;whiteSpace=wrap;rounded=1;strokeColor=none;glass=0;" parent="1" vertex="1">
          <mxGeometry x="-147.68999999999994" y="647.26" width="22.5" height="6.75" as="geometry" />
        </mxCell>
        <mxCell id="QMaH3NDAXjiI4MQNCzqP-27" value="&lt;span style=&quot;font-size: 8px;&quot;&gt;(1,1)&lt;/span&gt;" style="text;html=1;align=center;verticalAlign=middle;whiteSpace=wrap;rounded=1;strokeColor=none;glass=0;" parent="1" vertex="1">
          <mxGeometry x="-20.519999999999953" y="647.1600000000001" width="22.5" height="6.75" as="geometry" />
        </mxCell>
        <mxCell id="QMaH3NDAXjiI4MQNCzqP-76" style="edgeStyle=orthogonalEdgeStyle;rounded=0;orthogonalLoop=1;jettySize=auto;html=1;exitX=0.5;exitY=1;exitDx=0;exitDy=0;" parent="1" edge="1">
          <mxGeometry relative="1" as="geometry">
            <mxPoint x="-94.44000000000003" y="155.87" as="sourcePoint" />
            <mxPoint x="-94.44000000000003" y="155.87" as="targetPoint" />
          </mxGeometry>
        </mxCell>
        <mxCell id="QMaH3NDAXjiI4MQNCzqP-91" value="&lt;font style=&quot;font-size: 8px;&quot;&gt;Ora&lt;/font&gt;" style="text;html=1;align=center;verticalAlign=middle;whiteSpace=wrap;rounded=1;strokeColor=none;glass=0;" parent="1" vertex="1">
          <mxGeometry x="-53.489999999999995" y="21.379999999999995" width="50" height="15" as="geometry" />
        </mxCell>
        <mxCell id="QMaH3NDAXjiI4MQNCzqP-93" value="&lt;font style=&quot;font-size: 8px;&quot;&gt;Data&lt;/font&gt;" style="text;html=1;align=center;verticalAlign=middle;whiteSpace=wrap;rounded=1;strokeColor=none;glass=0;" parent="1" vertex="1">
          <mxGeometry x="-53.489999999999995" y="8.819999999999993" width="50" height="15" as="geometry" />
        </mxCell>
        <mxCell id="QMaH3NDAXjiI4MQNCzqP-94" style="edgeStyle=orthogonalEdgeStyle;rounded=0;orthogonalLoop=1;jettySize=auto;html=1;exitX=0;exitY=0;exitDx=0;exitDy=0;endArrow=oval;endFill=0;" parent="1" edge="1">
          <mxGeometry relative="1" as="geometry">
            <mxPoint x="-15.489999999999997" y="18.17999999999995" as="targetPoint" />
            <mxPoint x="3.8900000000000006" y="18.17999999999995" as="sourcePoint" />
            <Array as="points" />
          </mxGeometry>
        </mxCell>
        <mxCell id="QMaH3NDAXjiI4MQNCzqP-95" style="edgeStyle=orthogonalEdgeStyle;rounded=0;orthogonalLoop=1;jettySize=auto;html=1;endArrow=oval;endFill=0;" parent="1" edge="1">
          <mxGeometry relative="1" as="geometry">
            <mxPoint x="-15.489999999999997" y="31.299999999999955" as="targetPoint" />
            <mxPoint x="4.510000000000005" y="31.299999999999955" as="sourcePoint" />
            <Array as="points" />
          </mxGeometry>
        </mxCell>
        <mxCell id="QMaH3NDAXjiI4MQNCzqP-96" value="" style="endArrow=none;html=1;rounded=0;entryX=0.551;entryY=1.003;entryDx=0;entryDy=0;entryPerimeter=0;" parent="1" edge="1">
          <mxGeometry width="50" height="50" relative="1" as="geometry">
            <mxPoint x="14.010000000000005" y="56.91999999999996" as="sourcePoint" />
            <mxPoint x="14.010000000000005" y="33.860000000000014" as="targetPoint" />
          </mxGeometry>
        </mxCell>
        <mxCell id="QMaH3NDAXjiI4MQNCzqP-97" value="&lt;p style=&quot;line-height: 110%;&quot;&gt;&lt;font style=&quot;font-size: 7px;&quot;&gt;DataVisita&lt;/font&gt;&lt;/p&gt;" style="ellipse;whiteSpace=wrap;html=1;" parent="1" vertex="1">
          <mxGeometry x="-3.4899999999999944" y="13.799999999999955" width="36.12" height="20" as="geometry" />
        </mxCell>
        <mxCell id="QMaH3NDAXjiI4MQNCzqP-99" value="&lt;font style=&quot;font-size: 8px;&quot;&gt;Durata&lt;/font&gt;" style="text;html=1;align=center;verticalAlign=middle;whiteSpace=wrap;rounded=1;strokeColor=none;glass=0;" parent="1" vertex="1">
          <mxGeometry x="-6.739999999999995" y="101.13" width="50" height="17" as="geometry" />
        </mxCell>
        <mxCell id="QMaH3NDAXjiI4MQNCzqP-100" style="edgeStyle=orthogonalEdgeStyle;rounded=0;orthogonalLoop=1;jettySize=auto;html=1;exitX=1;exitY=0.5;exitDx=0;exitDy=0;endArrow=oval;endFill=0;" parent="1" edge="1">
          <mxGeometry relative="1" as="geometry">
            <mxPoint x="18.47000000000004" y="101.84000000000003" as="targetPoint" />
            <mxPoint x="18.060000000000016" y="81.41999999999996" as="sourcePoint" />
            <Array as="points">
              <mxPoint x="18.060000000000016" y="101.41999999999996" />
            </Array>
          </mxGeometry>
        </mxCell>
        <mxCell id="QMaH3NDAXjiI4MQNCzqP-101" value="&lt;span style=&quot;font-size: 8px;&quot;&gt;(1,N)&lt;/span&gt;" style="text;html=1;align=center;verticalAlign=middle;whiteSpace=wrap;rounded=1;strokeColor=none;glass=0;" parent="1" vertex="1">
          <mxGeometry x="-115.61999999999995" y="51.25000000000007" width="22.5" height="6.75" as="geometry" />
        </mxCell>
        <mxCell id="QMaH3NDAXjiI4MQNCzqP-102" value="&lt;font style=&quot;font-size: 8px;&quot;&gt;(0,N)&lt;/font&gt;" style="text;html=1;align=center;verticalAlign=middle;whiteSpace=wrap;rounded=1;strokeColor=none;glass=0;" parent="1" vertex="1">
          <mxGeometry x="170.95" y="49.249999999999886" width="22.5" height="6.75" as="geometry" />
        </mxCell>
        <mxCell id="QMaH3NDAXjiI4MQNCzqP-104" value="Sostiene" style="shape=rhombus;perimeter=rhombusPerimeter;whiteSpace=wrap;html=1;align=center;" parent="1" vertex="1">
          <mxGeometry x="-103.00000000000001" y="48.820000000000014" width="73.56" height="42.36" as="geometry" />
        </mxCell>
        <mxCell id="QMaH3NDAXjiI4MQNCzqP-105" value="" style="endArrow=none;html=1;rounded=0;entryX=1;entryY=0.5;entryDx=0;entryDy=0;exitX=0;exitY=0.5;exitDx=0;exitDy=0;" parent="1" source="QMaH3NDAXjiI4MQNCzqP-107" target="QMaH3NDAXjiI4MQNCzqP-104" edge="1">
          <mxGeometry width="50" height="50" relative="1" as="geometry">
            <mxPoint x="161.14000000000004" y="69.48000000000002" as="sourcePoint" />
            <mxPoint x="-107.05000000000001" y="69.48000000000002" as="targetPoint" />
          </mxGeometry>
        </mxCell>
        <mxCell id="QMaH3NDAXjiI4MQNCzqP-106" value="" style="endArrow=none;html=1;rounded=0;entryX=1;entryY=0.5;entryDx=0;entryDy=0;exitX=0;exitY=0.5;exitDx=0;exitDy=0;" parent="1" source="QMaH3NDAXjiI4MQNCzqP-109" target="QMaH3NDAXjiI4MQNCzqP-107" edge="1">
          <mxGeometry width="50" height="50" relative="1" as="geometry">
            <mxPoint x="161.14000000000004" y="69.48000000000002" as="sourcePoint" />
            <mxPoint x="-23.049999999999997" y="69.22000000000003" as="targetPoint" />
          </mxGeometry>
        </mxCell>
        <mxCell id="QMaH3NDAXjiI4MQNCzqP-107" value="Visita" style="whiteSpace=wrap;html=1;align=center;" parent="1" vertex="1">
          <mxGeometry x="0.9500000000000028" y="56.48000000000002" width="90.38" height="26.28" as="geometry" />
        </mxCell>
        <mxCell id="QMaH3NDAXjiI4MQNCzqP-109" value="Utilizza" style="shape=rhombus;perimeter=rhombusPerimeter;whiteSpace=wrap;html=1;align=center;" parent="1" vertex="1">
          <mxGeometry x="116.88" y="49.24999999999996" width="70" height="39.81" as="geometry" />
        </mxCell>
        <mxCell id="QMaH3NDAXjiI4MQNCzqP-110" value="&lt;span style=&quot;font-size: 8px;&quot;&gt;(1,1)&lt;/span&gt;" style="text;html=1;align=center;verticalAlign=middle;whiteSpace=wrap;rounded=1;strokeColor=none;glass=0;" parent="1" vertex="1">
          <mxGeometry x="-39.04999999999994" y="51.25000000000007" width="22.5" height="6.75" as="geometry" />
        </mxCell>
        <mxCell id="QMaH3NDAXjiI4MQNCzqP-111" value="&lt;span style=&quot;font-size: 8px;&quot;&gt;(1,N)&lt;/span&gt;" style="text;html=1;align=center;verticalAlign=middle;whiteSpace=wrap;rounded=1;strokeColor=none;glass=0;" parent="1" vertex="1">
          <mxGeometry x="106.88000000000005" y="50.00000000000006" width="22.5" height="6.75" as="geometry" />
        </mxCell>
        <mxCell id="QMaH3NDAXjiI4MQNCzqP-112" style="edgeStyle=orthogonalEdgeStyle;rounded=0;orthogonalLoop=1;jettySize=auto;html=1;exitX=0.25;exitY=0;exitDx=0;exitDy=0;entryX=0.842;entryY=1.009;entryDx=0;entryDy=0;entryPerimeter=0;endArrow=oval;endFill=1;" parent="1" edge="1">
          <mxGeometry relative="1" as="geometry">
            <mxPoint x="44.64" y="56.48000000000002" as="sourcePoint" />
            <mxPoint x="47.64" y="43.48000000000002" as="targetPoint" />
          </mxGeometry>
        </mxCell>
        <mxCell id="QMaH3NDAXjiI4MQNCzqP-113" value="&lt;font style=&quot;font-size: 9px;&quot;&gt;Codice&lt;/font&gt;" style="text;html=1;align=center;verticalAlign=middle;whiteSpace=wrap;rounded=0;" parent="1" vertex="1">
          <mxGeometry x="26.140000000000057" y="23.821011673151702" width="40" height="17.314202334630348" as="geometry" />
        </mxCell>
        <mxCell id="QMaH3NDAXjiI4MQNCzqP-118" style="edgeStyle=orthogonalEdgeStyle;rounded=0;orthogonalLoop=1;jettySize=auto;html=1;exitX=0.5;exitY=1;exitDx=0;exitDy=0;" parent="1" edge="1">
          <mxGeometry relative="1" as="geometry">
            <mxPoint x="111.16" y="149.06" as="sourcePoint" />
            <mxPoint x="111.16" y="149.06" as="targetPoint" />
          </mxGeometry>
        </mxCell>
        <mxCell id="QMaH3NDAXjiI4MQNCzqP-126" style="edgeStyle=orthogonalEdgeStyle;rounded=0;orthogonalLoop=1;jettySize=auto;html=1;exitX=0.5;exitY=1;exitDx=0;exitDy=0;" parent="1" edge="1">
          <mxGeometry relative="1" as="geometry">
            <mxPoint x="129.16" y="148.15000000000003" as="sourcePoint" />
            <mxPoint x="129.16" y="148.15000000000003" as="targetPoint" />
          </mxGeometry>
        </mxCell>
        <mxCell id="QMaH3NDAXjiI4MQNCzqP-201" value="&lt;font style=&quot;font-size: 8px;&quot;&gt;Ora&lt;/font&gt;" style="text;html=1;align=center;verticalAlign=middle;whiteSpace=wrap;rounded=1;strokeColor=none;glass=0;" parent="1" vertex="1">
          <mxGeometry x="-304.6699999999999" y="365.25" width="50" height="15" as="geometry" />
        </mxCell>
        <mxCell id="QMaH3NDAXjiI4MQNCzqP-202" value="&lt;font style=&quot;font-size: 8px;&quot;&gt;Data&lt;/font&gt;" style="text;html=1;align=center;verticalAlign=middle;whiteSpace=wrap;rounded=1;strokeColor=none;glass=0;" parent="1" vertex="1">
          <mxGeometry x="-306.6699999999999" y="351.26" width="50" height="15" as="geometry" />
        </mxCell>
        <mxCell id="QMaH3NDAXjiI4MQNCzqP-203" style="edgeStyle=orthogonalEdgeStyle;rounded=0;orthogonalLoop=1;jettySize=auto;html=1;exitX=0;exitY=0;exitDx=0;exitDy=0;endArrow=oval;endFill=0;" parent="1" edge="1">
          <mxGeometry relative="1" as="geometry">
            <mxPoint x="-266.6699999999999" y="362.51" as="targetPoint" />
            <mxPoint x="-247.29000000000002" y="362.51" as="sourcePoint" />
            <Array as="points" />
          </mxGeometry>
        </mxCell>
        <mxCell id="QMaH3NDAXjiI4MQNCzqP-204" style="edgeStyle=orthogonalEdgeStyle;rounded=0;orthogonalLoop=1;jettySize=auto;html=1;endArrow=oval;endFill=0;" parent="1" edge="1">
          <mxGeometry relative="1" as="geometry">
            <mxPoint x="-266.6699999999999" y="375.63" as="targetPoint" />
            <mxPoint x="-246.6699999999999" y="375.63" as="sourcePoint" />
            <Array as="points" />
          </mxGeometry>
        </mxCell>
        <mxCell id="QMaH3NDAXjiI4MQNCzqP-205" value="&lt;p style=&quot;line-height: 110%;&quot;&gt;&lt;font style=&quot;font-size: 7px;&quot;&gt;DataCrea&lt;/font&gt;&lt;/p&gt;" style="ellipse;whiteSpace=wrap;html=1;" parent="1" vertex="1">
          <mxGeometry x="-254.6699999999999" y="358.13" width="36.12" height="20" as="geometry" />
        </mxCell>
        <mxCell id="Uv16PW8lFVU73aN1idEa-10" value="" style="endArrow=none;html=1;rounded=0;" parent="1" edge="1">
          <mxGeometry width="50" height="50" relative="1" as="geometry">
            <mxPoint x="129" y="179.69" as="sourcePoint" />
            <mxPoint x="345" y="180" as="targetPoint" />
          </mxGeometry>
        </mxCell>
        <mxCell id="Uv16PW8lFVU73aN1idEa-25" value="&lt;span style=&quot;font-size: 8px;&quot;&gt;(0,N)&lt;/span&gt;" style="text;html=1;align=center;verticalAlign=middle;whiteSpace=wrap;rounded=1;strokeColor=none;glass=0;" parent="1" vertex="1">
          <mxGeometry x="-154.45999999999995" y="159.85000000000008" width="22.5" height="6.75" as="geometry" />
        </mxCell>
        <mxCell id="Uv16PW8lFVU73aN1idEa-26" value="&lt;font style=&quot;font-size: 8px;&quot;&gt;(0,N)&lt;/font&gt;" style="text;html=1;align=center;verticalAlign=middle;whiteSpace=wrap;rounded=1;strokeColor=none;glass=0;" parent="1" vertex="1">
          <mxGeometry x="118.41" y="162.9799999999999" width="22.5" height="6.75" as="geometry" />
        </mxCell>
        <mxCell id="Uv16PW8lFVU73aN1idEa-27" value="" style="endArrow=none;html=1;rounded=0;entryX=1;entryY=0.5;entryDx=0;entryDy=0;exitX=0;exitY=0.5;exitDx=0;exitDy=0;" parent="1" source="Uv16PW8lFVU73aN1idEa-33" edge="1">
          <mxGeometry width="50" height="50" relative="1" as="geometry">
            <mxPoint x="105.73000000000005" y="179.16000000000003" as="sourcePoint" />
            <mxPoint x="-160" y="179.16000000000003" as="targetPoint" />
          </mxGeometry>
        </mxCell>
        <mxCell id="Uv16PW8lFVU73aN1idEa-33" value="A-P" style="shape=rhombus;perimeter=rhombusPerimeter;whiteSpace=wrap;html=1;align=center;" parent="1" vertex="1">
          <mxGeometry x="-143.84" y="157.98000000000002" width="73.56" height="42.36" as="geometry" />
        </mxCell>
        <mxCell id="Uv16PW8lFVU73aN1idEa-34" value="" style="endArrow=none;html=1;rounded=0;entryX=1;entryY=0.5;entryDx=0;entryDy=0;exitX=0;exitY=0.5;exitDx=0;exitDy=0;" parent="1" source="Uv16PW8lFVU73aN1idEa-36" target="Uv16PW8lFVU73aN1idEa-33" edge="1">
          <mxGeometry width="50" height="50" relative="1" as="geometry">
            <mxPoint x="105.73000000000005" y="179.16000000000003" as="sourcePoint" />
            <mxPoint x="-162.46" y="179.16000000000003" as="targetPoint" />
          </mxGeometry>
        </mxCell>
        <mxCell id="Uv16PW8lFVU73aN1idEa-35" value="" style="endArrow=none;html=1;rounded=0;entryX=1;entryY=0.5;entryDx=0;entryDy=0;exitX=0;exitY=0.5;exitDx=0;exitDy=0;" parent="1" source="Uv16PW8lFVU73aN1idEa-38" target="Uv16PW8lFVU73aN1idEa-36" edge="1">
          <mxGeometry width="50" height="50" relative="1" as="geometry">
            <mxPoint x="105.73000000000005" y="179.16000000000003" as="sourcePoint" />
            <mxPoint x="-78.46000000000001" y="178.90000000000003" as="targetPoint" />
          </mxGeometry>
        </mxCell>
        <mxCell id="Uv16PW8lFVU73aN1idEa-36" value="Partecipazione" style="whiteSpace=wrap;html=1;align=center;" parent="1" vertex="1">
          <mxGeometry x="-53.84000000000002" y="166.16000000000003" width="90.38" height="26.28" as="geometry" />
        </mxCell>
        <mxCell id="Uv16PW8lFVU73aN1idEa-38" value="P-E" style="shape=rhombus;perimeter=rhombusPerimeter;whiteSpace=wrap;html=1;align=center;" parent="1" vertex="1">
          <mxGeometry x="60.16" y="159.84999999999997" width="70" height="39.81" as="geometry" />
        </mxCell>
        <mxCell id="Uv16PW8lFVU73aN1idEa-39" value="&lt;span style=&quot;font-size: 8px;&quot;&gt;(1,1)&lt;/span&gt;" style="text;html=1;align=center;verticalAlign=middle;whiteSpace=wrap;rounded=1;strokeColor=none;glass=0;" parent="1" vertex="1">
          <mxGeometry x="-84.45999999999995" y="159.85000000000008" width="22.5" height="6.75" as="geometry" />
        </mxCell>
        <mxCell id="Uv16PW8lFVU73aN1idEa-40" value="&lt;span style=&quot;font-size: 8px;&quot;&gt;(1,1)&lt;/span&gt;" style="text;html=1;align=center;verticalAlign=middle;whiteSpace=wrap;rounded=1;strokeColor=none;glass=0;" parent="1" vertex="1">
          <mxGeometry x="49.94000000000005" y="162.98000000000005" width="22.5" height="6.75" as="geometry" />
        </mxCell>
        <mxCell id="Uv16PW8lFVU73aN1idEa-78" value="" style="endArrow=none;html=1;rounded=0;" parent="1" edge="1">
          <mxGeometry width="50" height="50" relative="1" as="geometry">
            <mxPoint x="-160" y="400" as="sourcePoint" />
            <mxPoint x="-160" y="178.7" as="targetPoint" />
          </mxGeometry>
        </mxCell>
        <mxCell id="Uv16PW8lFVU73aN1idEa-105" value="" style="endArrow=none;html=1;rounded=0;" parent="1" edge="1">
          <mxGeometry width="50" height="50" relative="1" as="geometry">
            <mxPoint x="-236.74" y="398.13" as="sourcePoint" />
            <mxPoint x="-236.74" y="378.13" as="targetPoint" />
          </mxGeometry>
        </mxCell>
        <mxCell id="Uv16PW8lFVU73aN1idEa-111" value="" style="endArrow=none;html=1;rounded=0;exitX=0.999;exitY=0.135;exitDx=0;exitDy=0;exitPerimeter=0;" parent="1" source="esEqVlL6re1M1a8fyDZB-29" edge="1">
          <mxGeometry width="50" height="50" relative="1" as="geometry">
            <mxPoint x="-160" y="430" as="sourcePoint" />
            <mxPoint x="-159.5" y="400" as="targetPoint" />
          </mxGeometry>
        </mxCell>
        <mxCell id="yjBL0NTRzS2PuPFi7aJE-12" value="Contenimento" style="shape=rhombus;perimeter=rhombusPerimeter;whiteSpace=wrap;html=1;align=center;" parent="1" vertex="1">
          <mxGeometry x="289.94" y="450.75" width="86.56" height="49.63" as="geometry" />
        </mxCell>
        <mxCell id="Uv16PW8lFVU73aN1idEa-115" value="" style="endArrow=none;html=1;rounded=0;" parent="1" edge="1">
          <mxGeometry width="50" height="50" relative="1" as="geometry">
            <mxPoint x="128.10000000000002" y="348.5" as="sourcePoint" />
            <mxPoint x="128.41000000000003" y="279.84000000000003" as="targetPoint" />
          </mxGeometry>
        </mxCell>
        <mxCell id="Uv16PW8lFVU73aN1idEa-116" value="" style="endArrow=none;html=1;rounded=0;entryX=0;entryY=0.75;entryDx=0;entryDy=0;" parent="1" edge="1">
          <mxGeometry width="50" height="50" relative="1" as="geometry">
            <mxPoint x="128.31" y="348" as="sourcePoint" />
            <mxPoint x="158.12" y="347.83000000000004" as="targetPoint" />
          </mxGeometry>
        </mxCell>
        <mxCell id="O113cSQGS3Kzy_eXXIUR-4" value="Pertinenza" style="shape=rhombus;perimeter=rhombusPerimeter;whiteSpace=wrap;html=1;align=center;" parent="1" vertex="1">
          <mxGeometry x="153.44" y="325.13" width="80" height="45" as="geometry" />
        </mxCell>
        <mxCell id="Uv16PW8lFVU73aN1idEa-118" style="edgeStyle=orthogonalEdgeStyle;rounded=0;orthogonalLoop=1;jettySize=auto;html=1;endArrow=oval;endFill=0;" parent="1" edge="1">
          <mxGeometry relative="1" as="geometry">
            <mxPoint x="381.43" y="545.87" as="sourcePoint" />
            <mxPoint x="399.31" y="546" as="targetPoint" />
            <Array as="points">
              <mxPoint x="389.31" y="546" />
            </Array>
          </mxGeometry>
        </mxCell>
        <mxCell id="Uv16PW8lFVU73aN1idEa-122" value="" style="endArrow=none;html=1;rounded=0;" parent="1" edge="1">
          <mxGeometry width="50" height="50" relative="1" as="geometry">
            <mxPoint x="229.31" y="700.4383829195206" as="sourcePoint" />
            <mxPoint x="229.31" y="570" as="targetPoint" />
          </mxGeometry>
        </mxCell>
        <mxCell id="Uv16PW8lFVU73aN1idEa-123" value="" style="endArrow=none;html=1;rounded=0;" parent="1" edge="1">
          <mxGeometry width="50" height="50" relative="1" as="geometry">
            <mxPoint x="432.22999999999996" y="699.5" as="sourcePoint" />
            <mxPoint x="432.22999999999996" y="570.29" as="targetPoint" />
          </mxGeometry>
        </mxCell>
        <mxCell id="Uv16PW8lFVU73aN1idEa-125" value="" style="endArrow=none;html=1;rounded=0;" parent="1" edge="1">
          <mxGeometry width="50" height="50" relative="1" as="geometry">
            <mxPoint x="229.31" y="570" as="sourcePoint" />
            <mxPoint x="432.81" y="570" as="targetPoint" />
          </mxGeometry>
        </mxCell>
        <mxCell id="esEqVlL6re1M1a8fyDZB-14" value="Oggetto" style="whiteSpace=wrap;html=1;align=center;" parent="1" vertex="1">
          <mxGeometry x="281.43" y="540.9254863813229" width="100" height="40.73929961089494" as="geometry" />
        </mxCell>
        <mxCell id="Uv16PW8lFVU73aN1idEa-126" value="" style="endArrow=none;html=1;rounded=0;entryX=0.478;entryY=0.996;entryDx=0;entryDy=0;entryPerimeter=0;" parent="1" target="esEqVlL6re1M1a8fyDZB-14" edge="1">
          <mxGeometry width="50" height="50" relative="1" as="geometry">
            <mxPoint x="329.31" y="660.5" as="sourcePoint" />
            <mxPoint x="389.31" y="590" as="targetPoint" />
          </mxGeometry>
        </mxCell>
        <mxCell id="wgphQa1_afwgETiwCPE1-4" value="" style="endArrow=none;html=1;rounded=0;" parent="1" edge="1">
          <mxGeometry width="50" height="50" relative="1" as="geometry">
            <mxPoint x="-121.64" y="411.5" as="sourcePoint" />
            <mxPoint x="-122" y="262" as="targetPoint" />
          </mxGeometry>
        </mxCell>
        <mxCell id="wgphQa1_afwgETiwCPE1-5" value="" style="endArrow=none;html=1;rounded=0;exitX=1;exitY=0.853;exitDx=0;exitDy=0;exitPerimeter=0;" parent="1" edge="1">
          <mxGeometry width="50" height="50" relative="1" as="geometry">
            <mxPoint x="-181.25000000000006" y="410.7200000000001" as="sourcePoint" />
            <mxPoint x="-120" y="411" as="targetPoint" />
          </mxGeometry>
        </mxCell>
        <mxCell id="wgphQa1_afwgETiwCPE1-7" value="" style="endArrow=none;html=1;rounded=0;" parent="1" source="sCdLPjGgIY4ofrzn0zne-22" edge="1">
          <mxGeometry width="50" height="50" relative="1" as="geometry">
            <mxPoint x="-120" y="262" as="sourcePoint" />
            <mxPoint x="16.880000000000003" y="262.47" as="targetPoint" />
          </mxGeometry>
        </mxCell>
        <mxCell id="XXTzxfShvsyMxl4-VaxK-1" value="Correlazione" style="shape=rhombus;perimeter=rhombusPerimeter;whiteSpace=wrap;html=1;align=center;" parent="1" vertex="1">
          <mxGeometry x="291.25000000000006" y="673.5377626459143" width="80" height="50.92412451361867" as="geometry" />
        </mxCell>
        <mxCell id="XXTzxfShvsyMxl4-VaxK-2" value="&lt;font style=&quot;font-size: 8px;&quot;&gt;(0,N)&lt;/font&gt;" style="text;html=1;align=center;verticalAlign=middle;whiteSpace=wrap;rounded=1;strokeColor=none;glass=0;" parent="1" vertex="1">
          <mxGeometry x="263.37000000000006" y="677.37" width="50" height="19" as="geometry" />
        </mxCell>
        <mxCell id="XXTzxfShvsyMxl4-VaxK-3" value="&lt;font style=&quot;font-size: 8px;&quot;&gt;(0,N)&lt;/font&gt;" style="text;html=1;align=center;verticalAlign=middle;whiteSpace=wrap;rounded=1;strokeColor=none;glass=0;" parent="1" vertex="1">
          <mxGeometry x="347.36999999999995" y="673.92" width="50" height="24.24" as="geometry" />
        </mxCell>
        <mxCell id="XXTzxfShvsyMxl4-VaxK-4" value="&lt;font style=&quot;font-size: 9px;&quot;&gt;Descrizione&lt;/font&gt;" style="text;html=1;align=center;verticalAlign=middle;whiteSpace=wrap;rounded=0;" parent="1" vertex="1">
          <mxGeometry x="274.13000000000005" y="713.45" width="40" height="17.314202334630348" as="geometry" />
        </mxCell>
        <mxCell id="XXTzxfShvsyMxl4-VaxK-5" style="edgeStyle=orthogonalEdgeStyle;rounded=0;orthogonalLoop=1;jettySize=auto;html=1;exitX=1;exitY=0;exitDx=0;exitDy=0;endArrow=oval;endFill=0;" parent="1" edge="1">
          <mxGeometry relative="1" as="geometry">
            <mxPoint x="291.13000000000005" y="699.14" as="sourcePoint" />
            <mxPoint x="291.13000000000005" y="714.14" as="targetPoint" />
          </mxGeometry>
        </mxCell>
        <mxCell id="XXTzxfShvsyMxl4-VaxK-6" value="" style="endArrow=none;html=1;rounded=0;entryX=0;entryY=0.5;entryDx=0;entryDy=0;" parent="1" target="XXTzxfShvsyMxl4-VaxK-1" edge="1">
          <mxGeometry width="50" height="50" relative="1" as="geometry">
            <mxPoint x="229.31" y="700" as="sourcePoint" />
            <mxPoint x="273.99" y="686.37" as="targetPoint" />
          </mxGeometry>
        </mxCell>
        <mxCell id="XXTzxfShvsyMxl4-VaxK-7" value="" style="endArrow=none;html=1;rounded=0;exitX=1;exitY=0.5;exitDx=0;exitDy=0;" parent="1" source="XXTzxfShvsyMxl4-VaxK-1" edge="1">
          <mxGeometry width="50" height="50" relative="1" as="geometry">
            <mxPoint x="363.98999999999995" y="676.37" as="sourcePoint" />
            <mxPoint x="432.31" y="699" as="targetPoint" />
          </mxGeometry>
        </mxCell>
        <mxCell id="1P0wnPybKFTleaGCKq55-1" value="&lt;font style=&quot;font-size: 8px;&quot;&gt;Argomento&lt;/font&gt;" style="text;html=1;align=center;verticalAlign=middle;whiteSpace=wrap;rounded=1;strokeColor=none;" parent="1" vertex="1">
          <mxGeometry x="163.76" y="712.6100000000002" width="40" height="19" as="geometry" />
        </mxCell>
        <mxCell id="1P0wnPybKFTleaGCKq55-2" style="edgeStyle=orthogonalEdgeStyle;rounded=0;orthogonalLoop=1;jettySize=auto;html=1;exitX=0.5;exitY=1;exitDx=0;exitDy=0;" parent="1" edge="1">
          <mxGeometry relative="1" as="geometry">
            <mxPoint x="-201.8599999999999" y="705.4300000000002" as="sourcePoint" />
            <mxPoint x="-201.8599999999999" y="705.4300000000002" as="targetPoint" />
          </mxGeometry>
        </mxCell>
        <mxCell id="1P0wnPybKFTleaGCKq55-3" style="edgeStyle=orthogonalEdgeStyle;rounded=0;orthogonalLoop=1;jettySize=auto;html=1;exitX=0.5;exitY=1;exitDx=0;exitDy=0;" parent="1" edge="1">
          <mxGeometry relative="1" as="geometry">
            <mxPoint x="3.7399999999999958" y="698.6200000000001" as="sourcePoint" />
            <mxPoint x="3.7399999999999958" y="698.6200000000001" as="targetPoint" />
          </mxGeometry>
        </mxCell>
        <mxCell id="1P0wnPybKFTleaGCKq55-4" style="edgeStyle=orthogonalEdgeStyle;rounded=0;orthogonalLoop=1;jettySize=auto;html=1;exitX=0.5;exitY=1;exitDx=0;exitDy=0;" parent="1" edge="1">
          <mxGeometry relative="1" as="geometry">
            <mxPoint x="21.739999999999984" y="697.7100000000002" as="sourcePoint" />
            <mxPoint x="21.739999999999984" y="697.7100000000002" as="targetPoint" />
          </mxGeometry>
        </mxCell>
        <mxCell id="1P0wnPybKFTleaGCKq55-5" value="&lt;font style=&quot;font-size: 8px;&quot;&gt;(0,N)&lt;/font&gt;" style="text;html=1;align=center;verticalAlign=middle;whiteSpace=wrap;rounded=1;strokeColor=none;glass=0;" parent="1" vertex="1">
          <mxGeometry x="24.939999999999976" y="707.59" width="22.5" height="6.75" as="geometry" />
        </mxCell>
        <mxCell id="1P0wnPybKFTleaGCKq55-7" value="" style="endArrow=none;html=1;rounded=0;entryX=1;entryY=0.5;entryDx=0;entryDy=0;" parent="1" source="1P0wnPybKFTleaGCKq55-8" target="1P0wnPybKFTleaGCKq55-33" edge="1">
          <mxGeometry width="50" height="50" relative="1" as="geometry">
            <mxPoint x="67.23999999999998" y="729.5300000000002" as="sourcePoint" />
            <mxPoint x="-185.87999999999988" y="728.4600000000002" as="targetPoint" />
          </mxGeometry>
        </mxCell>
        <mxCell id="1P0wnPybKFTleaGCKq55-9" value="&lt;span style=&quot;font-size: 8px;&quot;&gt;(1,1)&lt;/span&gt;" style="text;html=1;align=center;verticalAlign=middle;whiteSpace=wrap;rounded=1;strokeColor=none;glass=0;" parent="1" vertex="1">
          <mxGeometry x="-208.32999999999996" y="706.57" width="22.5" height="6.75" as="geometry" />
        </mxCell>
        <mxCell id="1P0wnPybKFTleaGCKq55-10" value="&lt;span style=&quot;font-size: 8px;&quot;&gt;(1,1)&lt;/span&gt;" style="text;html=1;align=center;verticalAlign=middle;whiteSpace=wrap;rounded=1;strokeColor=none;glass=0;" parent="1" vertex="1">
          <mxGeometry x="-61.40999999999981" y="708.6100000000001" width="22.5" height="6.75" as="geometry" />
        </mxCell>
        <mxCell id="1P0wnPybKFTleaGCKq55-12" value="&lt;font style=&quot;font-size: 8px;&quot;&gt;(0,N)&lt;/font&gt;" style="text;html=1;align=center;verticalAlign=middle;whiteSpace=wrap;rounded=1;strokeColor=none;glass=0;" parent="1" vertex="1">
          <mxGeometry x="-297.9299999999999" y="706.5700000000002" width="22.5" height="8.79" as="geometry" />
        </mxCell>
        <mxCell id="1P0wnPybKFTleaGCKq55-17" value="&lt;span style=&quot;font-size: 8px;&quot;&gt;(1,1)&lt;/span&gt;" style="text;html=1;align=center;verticalAlign=middle;whiteSpace=wrap;rounded=1;strokeColor=none;glass=0;" parent="1" vertex="1">
          <mxGeometry x="-124" y="800.1300000000005" width="22.5" height="6.75" as="geometry" />
        </mxCell>
        <mxCell id="1P0wnPybKFTleaGCKq55-18" value="&lt;font style=&quot;font-size: 8px;&quot;&gt;(0,N)&lt;/font&gt;" style="text;html=1;align=center;verticalAlign=middle;whiteSpace=wrap;rounded=1;strokeColor=none;glass=0;" parent="1" vertex="1">
          <mxGeometry x="-92.17000000000003" y="818" width="22.5" height="8.79" as="geometry" />
        </mxCell>
        <mxCell id="1P0wnPybKFTleaGCKq55-34" value="&lt;font style=&quot;font-size: 9px;&quot;&gt;Codice&lt;/font&gt;" style="text;html=1;align=center;verticalAlign=middle;whiteSpace=wrap;rounded=0;" parent="1" vertex="1">
          <mxGeometry x="77.23999999999998" y="673.9200000000003" width="42.67" height="17.9" as="geometry" />
        </mxCell>
        <mxCell id="1P0wnPybKFTleaGCKq55-35" style="edgeStyle=orthogonalEdgeStyle;rounded=0;orthogonalLoop=1;jettySize=auto;html=1;exitX=0.75;exitY=0;exitDx=0;exitDy=0;endArrow=oval;endFill=1;" parent="1" edge="1">
          <mxGeometry relative="1" as="geometry">
            <mxPoint x="100.46999999999987" y="707.9400000000003" as="sourcePoint" />
            <mxPoint x="98.46999999999987" y="691.9400000000003" as="targetPoint" />
          </mxGeometry>
        </mxCell>
        <mxCell id="1P0wnPybKFTleaGCKq55-36" value="&lt;font style=&quot;font-size: 8px;&quot;&gt;Tema&lt;/font&gt;&lt;div style=&quot;line-height: 50%;&quot;&gt;&lt;font style=&quot;font-size: 8px;&quot;&gt;Storico&lt;/font&gt;&lt;/div&gt;" style="text;html=1;align=center;verticalAlign=middle;whiteSpace=wrap;rounded=1;strokeColor=none;" parent="1" vertex="1">
          <mxGeometry x="15.320000000000011" y="748.7800000000001" width="40" height="20" as="geometry" />
        </mxCell>
        <mxCell id="1P0wnPybKFTleaGCKq55-40" style="edgeStyle=orthogonalEdgeStyle;rounded=0;orthogonalLoop=1;jettySize=auto;html=1;exitX=1;exitY=0.5;exitDx=0;exitDy=0;endArrow=oval;endFill=0;" parent="1" edge="1">
          <mxGeometry relative="1" as="geometry">
            <mxPoint x="350" y="770" as="targetPoint" />
            <mxPoint x="330.3700000000001" y="769.78" as="sourcePoint" />
          </mxGeometry>
        </mxCell>
        <mxCell id="1P0wnPybKFTleaGCKq55-43" value="&lt;font style=&quot;font-size: 9px;&quot;&gt;Codice&lt;/font&gt;" style="text;html=1;align=center;verticalAlign=middle;whiteSpace=wrap;rounded=0;" parent="1" vertex="1">
          <mxGeometry x="284.13999999999993" y="739.6200000000003" width="42.67" height="20.03" as="geometry" />
        </mxCell>
        <mxCell id="1P0wnPybKFTleaGCKq55-44" style="edgeStyle=orthogonalEdgeStyle;rounded=0;orthogonalLoop=1;jettySize=auto;html=1;exitX=0.75;exitY=0;exitDx=0;exitDy=0;endArrow=oval;endFill=1;" parent="1" edge="1">
          <mxGeometry relative="1" as="geometry">
            <mxPoint x="305.7599999999999" y="776.2100000000002" as="sourcePoint" />
            <mxPoint x="303.7599999999999" y="760.2100000000002" as="targetPoint" />
          </mxGeometry>
        </mxCell>
        <mxCell id="1P0wnPybKFTleaGCKq55-46" style="edgeStyle=orthogonalEdgeStyle;rounded=0;orthogonalLoop=1;jettySize=auto;html=1;exitX=1.002;exitY=0.878;exitDx=0;exitDy=0;endArrow=oval;endFill=0;exitPerimeter=0;" parent="1" source="1P0wnPybKFTleaGCKq55-45" edge="1">
          <mxGeometry relative="1" as="geometry">
            <mxPoint x="328.6663799228909" y="790.1432645518722" as="sourcePoint" />
            <mxPoint x="350" y="795" as="targetPoint" />
          </mxGeometry>
        </mxCell>
        <mxCell id="1P0wnPybKFTleaGCKq55-47" value="&lt;font style=&quot;font-size: 8px;&quot;&gt;Lunghezza&lt;/font&gt;" style="text;html=1;align=center;verticalAlign=middle;whiteSpace=wrap;rounded=1;strokeColor=none;" parent="1" vertex="1">
          <mxGeometry x="353.5" y="780.94" width="39" height="24" as="geometry" />
        </mxCell>
        <mxCell id="1P0wnPybKFTleaGCKq55-49" style="edgeStyle=orthogonalEdgeStyle;rounded=0;orthogonalLoop=1;jettySize=auto;html=1;exitX=1.002;exitY=0.482;exitDx=0;exitDy=0;endArrow=oval;endFill=0;entryX=-0.112;entryY=0.718;entryDx=0;entryDy=0;entryPerimeter=0;exitPerimeter=0;" parent="1" edge="1">
          <mxGeometry relative="1" as="geometry">
            <mxPoint x="135.82" y="724.5836600000006" as="sourcePoint" />
            <mxPoint x="159.06000000000003" y="724.4600000000004" as="targetPoint" />
            <Array as="points">
              <mxPoint x="149.07000000000002" y="724.4600000000004" />
            </Array>
          </mxGeometry>
        </mxCell>
        <mxCell id="1P0wnPybKFTleaGCKq55-57" style="edgeStyle=orthogonalEdgeStyle;rounded=0;orthogonalLoop=1;jettySize=auto;html=1;exitX=0;exitY=0.75;exitDx=0;exitDy=0;entryX=0.578;entryY=0.124;entryDx=0;entryDy=0;entryPerimeter=0;endArrow=oval;endFill=0;" parent="1" source="1P0wnPybKFTleaGCKq55-70" edge="1">
          <mxGeometry relative="1" as="geometry">
            <mxPoint x="35.199999999999974" y="739.6200000000002" as="sourcePoint" />
            <mxPoint x="35.319999999999865" y="750.0888482490276" as="targetPoint" />
          </mxGeometry>
        </mxCell>
        <mxCell id="1P0wnPybKFTleaGCKq55-65" value="&lt;span style=&quot;font-size: 8px;&quot;&gt;Nome&lt;/span&gt;" style="text;html=1;align=center;verticalAlign=middle;whiteSpace=wrap;rounded=1;strokeColor=none;" parent="1" vertex="1">
          <mxGeometry x="345.38" y="756.34" width="39" height="24" as="geometry" />
        </mxCell>
        <mxCell id="1P0wnPybKFTleaGCKq55-66" style="edgeStyle=orthogonalEdgeStyle;rounded=0;orthogonalLoop=1;jettySize=auto;html=1;exitX=1;exitY=0.75;exitDx=0;exitDy=0;entryX=0.578;entryY=0.124;entryDx=0;entryDy=0;entryPerimeter=0;endArrow=oval;endFill=0;" parent="1" source="1P0wnPybKFTleaGCKq55-70" edge="1">
          <mxGeometry relative="1" as="geometry">
            <mxPoint x="147.32000000000002" y="741.95" as="sourcePoint" />
            <mxPoint x="147.4399999999999" y="752.4188482490274" as="targetPoint" />
          </mxGeometry>
        </mxCell>
        <mxCell id="1P0wnPybKFTleaGCKq55-67" value="&lt;span style=&quot;font-size: 8px;&quot;&gt;Descrizione&lt;/span&gt;" style="text;html=1;align=center;verticalAlign=middle;whiteSpace=wrap;rounded=1;strokeColor=none;" parent="1" vertex="1">
          <mxGeometry x="132.44" y="748.7800000000001" width="40" height="20" as="geometry" />
        </mxCell>
        <mxCell id="1P0wnPybKFTleaGCKq55-68" style="edgeStyle=orthogonalEdgeStyle;rounded=0;orthogonalLoop=1;jettySize=auto;html=1;exitX=1.002;exitY=0.482;exitDx=0;exitDy=0;endArrow=oval;endFill=0;entryX=-0.112;entryY=0.718;entryDx=0;entryDy=0;entryPerimeter=0;exitPerimeter=0;" parent="1" edge="1">
          <mxGeometry relative="1" as="geometry">
            <mxPoint x="135.82000000000002" y="709.9936600000004" as="sourcePoint" />
            <mxPoint x="159.06000000000003" y="709.8700000000002" as="targetPoint" />
            <Array as="points">
              <mxPoint x="149.07000000000002" y="709.8700000000002" />
            </Array>
          </mxGeometry>
        </mxCell>
        <mxCell id="1P0wnPybKFTleaGCKq55-69" value="&lt;font style=&quot;font-size: 8px;&quot;&gt;Titolo&lt;/font&gt;" style="text;html=1;align=center;verticalAlign=middle;whiteSpace=wrap;rounded=1;strokeColor=none;" parent="1" vertex="1">
          <mxGeometry x="154.81000000000003" y="698.1600000000002" width="40" height="19" as="geometry" />
        </mxCell>
        <mxCell id="1P0wnPybKFTleaGCKq55-70" value="Conversazione" style="whiteSpace=wrap;html=1;align=center;" parent="1" vertex="1">
          <mxGeometry x="53.65999999999999" y="702.7100000000003" width="83" height="35.63" as="geometry" />
        </mxCell>
        <mxCell id="1P0wnPybKFTleaGCKq55-71" value="&lt;span style=&quot;font-size: 8px;&quot;&gt;Contenuto&lt;/span&gt;" style="text;html=1;align=center;verticalAlign=middle;whiteSpace=wrap;rounded=1;strokeColor=none;" parent="1" vertex="1">
          <mxGeometry x="284.1400000000001" y="804.2600000000001" width="40" height="20" as="geometry" />
        </mxCell>
        <mxCell id="1P0wnPybKFTleaGCKq55-72" style="edgeStyle=orthogonalEdgeStyle;rounded=0;orthogonalLoop=1;jettySize=auto;html=1;exitX=0.75;exitY=1;exitDx=0;exitDy=0;entryX=0.578;entryY=0.124;entryDx=0;entryDy=0;entryPerimeter=0;endArrow=oval;endFill=0;" parent="1" edge="1">
          <mxGeometry relative="1" as="geometry">
            <mxPoint x="300.87" y="797.5400000000001" as="sourcePoint" />
            <mxPoint x="300.9899999999999" y="808.0088482490274" as="targetPoint" />
          </mxGeometry>
        </mxCell>
        <mxCell id="1P0wnPybKFTleaGCKq55-73" value="&lt;span style=&quot;font-size: 8px;&quot;&gt;Motivo&lt;/span&gt;" style="text;html=1;align=center;verticalAlign=middle;whiteSpace=wrap;rounded=1;strokeColor=none;" parent="1" vertex="1">
          <mxGeometry x="96.65999999999997" y="745.9200000000002" width="40" height="20" as="geometry" />
        </mxCell>
        <mxCell id="1P0wnPybKFTleaGCKq55-74" style="edgeStyle=orthogonalEdgeStyle;rounded=0;orthogonalLoop=1;jettySize=auto;html=1;exitX=0.75;exitY=1;exitDx=0;exitDy=0;entryX=0.578;entryY=0.124;entryDx=0;entryDy=0;entryPerimeter=0;endArrow=oval;endFill=0;" parent="1" edge="1">
          <mxGeometry relative="1" as="geometry">
            <mxPoint x="116.88000000000004" y="738.3100000000001" as="sourcePoint" />
            <mxPoint x="116.99999999999993" y="748.7788482490274" as="targetPoint" />
          </mxGeometry>
        </mxCell>
        <mxCell id="vWzUlDC7XYXdj7ugsaOk-1" value="&lt;font style=&quot;font-size: 8px;&quot;&gt;Ora&lt;/font&gt;" style="text;html=1;align=center;verticalAlign=middle;whiteSpace=wrap;rounded=1;strokeColor=none;glass=0;" parent="1" vertex="1">
          <mxGeometry x="-254.66999999999987" y="459" width="50" height="15" as="geometry" />
        </mxCell>
        <mxCell id="vWzUlDC7XYXdj7ugsaOk-2" value="&lt;font style=&quot;font-size: 8px;&quot;&gt;Data&lt;/font&gt;" style="text;html=1;align=center;verticalAlign=middle;whiteSpace=wrap;rounded=1;strokeColor=none;glass=0;" parent="1" vertex="1">
          <mxGeometry x="-255.53999999999988" y="445" width="50" height="15" as="geometry" />
        </mxCell>
        <mxCell id="vWzUlDC7XYXdj7ugsaOk-3" style="edgeStyle=orthogonalEdgeStyle;rounded=0;orthogonalLoop=1;jettySize=auto;html=1;exitX=0;exitY=0;exitDx=0;exitDy=0;endArrow=oval;endFill=0;" parent="1" edge="1">
          <mxGeometry relative="1" as="geometry">
            <mxPoint x="-217.00999999999985" y="455.04" as="targetPoint" />
            <mxPoint x="-197.63" y="455.04" as="sourcePoint" />
            <Array as="points" />
          </mxGeometry>
        </mxCell>
        <mxCell id="vWzUlDC7XYXdj7ugsaOk-4" style="edgeStyle=orthogonalEdgeStyle;rounded=0;orthogonalLoop=1;jettySize=auto;html=1;endArrow=oval;endFill=0;" parent="1" edge="1">
          <mxGeometry relative="1" as="geometry">
            <mxPoint x="-217.0099999999999" y="469.04" as="targetPoint" />
            <mxPoint x="-197.00999999999988" y="469.04" as="sourcePoint" />
            <Array as="points" />
          </mxGeometry>
        </mxCell>
        <mxCell id="vWzUlDC7XYXdj7ugsaOk-6" value="" style="endArrow=none;html=1;rounded=0;" parent="1" edge="1">
          <mxGeometry width="50" height="50" relative="1" as="geometry">
            <mxPoint x="-187.16" y="463.4800000000001" as="sourcePoint" />
            <mxPoint x="-187.16" y="426.18" as="targetPoint" />
          </mxGeometry>
        </mxCell>
        <mxCell id="vWzUlDC7XYXdj7ugsaOk-5" value="&lt;p style=&quot;line-height: 110%;&quot;&gt;&lt;font style=&quot;font-size: 7px;&quot;&gt;DataFine&lt;/font&gt;&lt;/p&gt;" style="ellipse;whiteSpace=wrap;html=1;" parent="1" vertex="1">
          <mxGeometry x="-205.54" y="449.71999999999997" width="36.87" height="22.63" as="geometry" />
        </mxCell>
        <mxCell id="vWzUlDC7XYXdj7ugsaOk-11" value="" style="endArrow=none;html=1;rounded=0;" parent="1" target="QMaH3NDAXjiI4MQNCzqP-19" edge="1">
          <mxGeometry width="50" height="50" relative="1" as="geometry">
            <mxPoint x="-310.5" y="660" as="sourcePoint" />
            <mxPoint x="500" y="660" as="targetPoint" />
            <Array as="points" />
          </mxGeometry>
        </mxCell>
        <mxCell id="QMaH3NDAXjiI4MQNCzqP-19" value="A-I" style="shape=rhombus;perimeter=rhombusPerimeter;whiteSpace=wrap;html=1;align=center;" parent="1" vertex="1">
          <mxGeometry x="-221.25" y="639.12" width="73.56" height="42.36" as="geometry" />
        </mxCell>
        <mxCell id="vWzUlDC7XYXdj7ugsaOk-12" value="" style="endArrow=none;html=1;rounded=0;" parent="1" source="QMaH3NDAXjiI4MQNCzqP-22" target="QMaH3NDAXjiI4MQNCzqP-25" edge="1">
          <mxGeometry width="50" height="50" relative="1" as="geometry">
            <mxPoint x="-148" y="660" as="sourcePoint" />
            <mxPoint x="500" y="660" as="targetPoint" />
            <Array as="points" />
          </mxGeometry>
        </mxCell>
        <mxCell id="QMaH3NDAXjiI4MQNCzqP-25" value="I-O" style="shape=rhombus;perimeter=rhombusPerimeter;whiteSpace=wrap;html=1;align=center;" parent="1" vertex="1">
          <mxGeometry x="-6.740000000000009" y="640.39" width="70" height="39.81" as="geometry" />
        </mxCell>
        <mxCell id="vWzUlDC7XYXdj7ugsaOk-14" value="" style="endArrow=none;html=1;rounded=0;" parent="1" target="sCdLPjGgIY4ofrzn0zne-22" edge="1">
          <mxGeometry width="50" height="50" relative="1" as="geometry">
            <mxPoint x="-120" y="262" as="sourcePoint" />
            <mxPoint x="16.880000000000003" y="262.47" as="targetPoint" />
          </mxGeometry>
        </mxCell>
        <mxCell id="sCdLPjGgIY4ofrzn0zne-22" value="Esplorazione" style="shape=rhombus;perimeter=rhombusPerimeter;whiteSpace=wrap;html=1;align=center;" parent="1" vertex="1">
          <mxGeometry x="-121.97999999999999" y="239.70999999999998" width="95" height="46" as="geometry" />
        </mxCell>
        <mxCell id="vWzUlDC7XYXdj7ugsaOk-20" value="" style="endArrow=none;html=1;rounded=0;exitX=0.5;exitY=0;exitDx=0;exitDy=0;entryX=0.022;entryY=0.849;entryDx=0;entryDy=0;entryPerimeter=0;" parent="1" source="sCdLPjGgIY4ofrzn0zne-9" target="sCdLPjGgIY4ofrzn0zne-1" edge="1">
          <mxGeometry width="50" height="50" relative="1" as="geometry">
            <mxPoint x="180" y="240" as="sourcePoint" />
            <mxPoint x="230" y="190" as="targetPoint" />
            <Array as="points">
              <mxPoint x="193" y="194" />
              <mxPoint x="214" y="194" />
            </Array>
          </mxGeometry>
        </mxCell>
        <mxCell id="vWzUlDC7XYXdj7ugsaOk-27" value="" style="endArrow=none;html=1;rounded=0;entryX=0.005;entryY=0.897;entryDx=0;entryDy=0;entryPerimeter=0;" parent="1" target="esEqVlL6re1M1a8fyDZB-29" edge="1">
          <mxGeometry width="50" height="50" relative="1" as="geometry">
            <mxPoint x="-305" y="423" as="sourcePoint" />
            <mxPoint x="-340" y="430" as="targetPoint" />
          </mxGeometry>
        </mxCell>
        <mxCell id="vWzUlDC7XYXdj7ugsaOk-28" value="" style="endArrow=none;html=1;rounded=0;" parent="1" edge="1">
          <mxGeometry width="50" height="50" relative="1" as="geometry">
            <mxPoint x="-305" y="720" as="sourcePoint" />
            <mxPoint x="-304.67" y="422.4" as="targetPoint" />
          </mxGeometry>
        </mxCell>
        <mxCell id="vWzUlDC7XYXdj7ugsaOk-30" value="" style="endArrow=none;html=1;rounded=0;" parent="1" target="1P0wnPybKFTleaGCKq55-33" edge="1">
          <mxGeometry width="50" height="50" relative="1" as="geometry">
            <mxPoint x="-305.5" y="720" as="sourcePoint" />
            <mxPoint x="-172" y="720" as="targetPoint" />
          </mxGeometry>
        </mxCell>
        <mxCell id="vWzUlDC7XYXdj7ugsaOk-31" value="" style="endArrow=none;html=1;rounded=0;entryX=1;entryY=0.5;entryDx=0;entryDy=0;" parent="1" source="1P0wnPybKFTleaGCKq55-70" target="1P0wnPybKFTleaGCKq55-8" edge="1">
          <mxGeometry width="50" height="50" relative="1" as="geometry">
            <mxPoint x="67.23999999999998" y="729.5300000000002" as="sourcePoint" />
            <mxPoint x="-66" y="720" as="targetPoint" />
          </mxGeometry>
        </mxCell>
        <mxCell id="1P0wnPybKFTleaGCKq55-8" value="I-C" style="shape=rhombus;perimeter=rhombusPerimeter;whiteSpace=wrap;html=1;align=center;" parent="1" vertex="1">
          <mxGeometry x="-42.660000000000004" y="699.8100000000001" width="70" height="39.81" as="geometry" />
        </mxCell>
        <mxCell id="vWzUlDC7XYXdj7ugsaOk-32" value="" style="endArrow=none;html=1;rounded=0;entryX=0.5;entryY=0;entryDx=0;entryDy=0;exitX=0.436;exitY=0.956;exitDx=0;exitDy=0;exitPerimeter=0;" parent="1" source="1P0wnPybKFTleaGCKq55-33" edge="1">
          <mxGeometry width="50" height="50" relative="1" as="geometry">
            <mxPoint x="-82.56" y="879.43" as="sourcePoint" />
            <mxPoint x="-123.90999999999997" y="812.02" as="targetPoint" />
          </mxGeometry>
        </mxCell>
        <mxCell id="vWzUlDC7XYXdj7ugsaOk-33" value="" style="endArrow=none;html=1;rounded=0;exitX=1.009;exitY=0.466;exitDx=0;exitDy=0;entryX=0;entryY=0.5;entryDx=0;entryDy=0;exitPerimeter=0;" parent="1" target="1P0wnPybKFTleaGCKq55-45" edge="1">
          <mxGeometry width="50" height="50" relative="1" as="geometry">
            <mxPoint x="-90" y="830.57146" as="sourcePoint" />
            <mxPoint x="240" y="831" as="targetPoint" />
            <Array as="points">
              <mxPoint x="110" y="830" />
              <mxPoint x="240" y="830" />
              <mxPoint x="240" y="784" />
            </Array>
          </mxGeometry>
        </mxCell>
        <mxCell id="1P0wnPybKFTleaGCKq55-6" value="A-Int" style="shape=rhombus;perimeter=rhombusPerimeter;whiteSpace=wrap;html=1;align=center;" parent="1" vertex="1">
          <mxGeometry x="-281.25000000000006" y="698.53" width="73.56" height="42.36" as="geometry" />
        </mxCell>
        <mxCell id="1P0wnPybKFTleaGCKq55-45" value="Azione" style="whiteSpace=wrap;html=1;align=center;" parent="1" vertex="1">
          <mxGeometry x="270.3700000000001" y="768.7799999999999" width="60" height="30" as="geometry" />
        </mxCell>
        <mxCell id="tlwNC5iyou4UT4noHv4N-2" value="I-A" style="shape=rhombus;perimeter=rhombusPerimeter;whiteSpace=wrap;html=1;align=center;" parent="1" vertex="1">
          <mxGeometry x="-159" y="811" width="70" height="39.81" as="geometry" />
        </mxCell>
        <mxCell id="tlwNC5iyou4UT4noHv4N-29" style="edgeStyle=orthogonalEdgeStyle;rounded=0;orthogonalLoop=1;jettySize=auto;html=1;endArrow=oval;endFill=0;" parent="1" edge="1">
          <mxGeometry relative="1" as="geometry">
            <mxPoint x="316.1600000000001" y="85.6800000000001" as="sourcePoint" />
            <mxPoint x="330" y="110" as="targetPoint" />
          </mxGeometry>
        </mxCell>
        <mxCell id="tlwNC5iyou4UT4noHv4N-30" value="&lt;font style=&quot;font-size: 8px;&quot;&gt;Risoluzione&lt;/font&gt;" style="text;html=1;align=center;verticalAlign=middle;whiteSpace=wrap;rounded=1;strokeColor=none;glass=0;" parent="1" vertex="1">
          <mxGeometry x="208" y="103" width="30" height="7.37" as="geometry" />
        </mxCell>
        <mxCell id="tlwNC5iyou4UT4noHv4N-31" value="&lt;font style=&quot;font-size: 8px;&quot;&gt;Precisione&lt;/font&gt;" style="text;html=1;align=center;verticalAlign=middle;whiteSpace=wrap;rounded=1;strokeColor=none;glass=0;" parent="1" vertex="1">
          <mxGeometry x="347.87" y="76.5" width="30" height="6.5" as="geometry" />
        </mxCell>
        <mxCell id="tlwNC5iyou4UT4noHv4N-32" style="edgeStyle=orthogonalEdgeStyle;rounded=0;orthogonalLoop=1;jettySize=auto;html=1;endArrow=oval;endFill=0;" parent="1" edge="1">
          <mxGeometry relative="1" as="geometry">
            <mxPoint x="294.94" y="85.61000000000006" as="sourcePoint" />
            <mxPoint x="293.14000000000004" y="105.77000000000002" as="targetPoint" />
          </mxGeometry>
        </mxCell>
        <mxCell id="tlwNC5iyou4UT4noHv4N-33" value="&lt;p style=&quot;line-height: 40%;&quot;&gt;&lt;font style=&quot;font-size: 8px;&quot;&gt;Campo visivo&lt;/font&gt;&lt;/p&gt;" style="text;html=1;align=center;verticalAlign=middle;whiteSpace=wrap;rounded=1;strokeColor=none;glass=0;" parent="1" vertex="1">
          <mxGeometry x="279.13" y="110.76000000000002" width="30" height="7.37" as="geometry" />
        </mxCell>
        <mxCell id="tlwNC5iyou4UT4noHv4N-34" style="edgeStyle=orthogonalEdgeStyle;rounded=0;orthogonalLoop=1;jettySize=auto;html=1;exitX=0;exitY=0.75;exitDx=0;exitDy=0;endArrow=oval;endFill=0;" parent="1" source="esEqVlL6re1M1a8fyDZB-7" edge="1">
          <mxGeometry relative="1" as="geometry">
            <mxPoint x="207.93" y="89.06" as="sourcePoint" />
            <mxPoint x="186.93" y="89.27999999999997" as="targetPoint" />
          </mxGeometry>
        </mxCell>
        <mxCell id="tlwNC5iyou4UT4noHv4N-35" value="&lt;font style=&quot;font-size: 8px;&quot;&gt;Connettività&lt;/font&gt;" style="text;html=1;align=center;verticalAlign=middle;whiteSpace=wrap;rounded=1;strokeColor=none;glass=0;" parent="1" vertex="1">
          <mxGeometry x="173.76" y="92" width="30" height="7.37" as="geometry" />
        </mxCell>
        <mxCell id="tlwNC5iyou4UT4noHv4N-37" value="&lt;font style=&quot;font-size: 8px;&quot;&gt;Sensibilità&lt;/font&gt;" style="text;html=1;align=center;verticalAlign=middle;whiteSpace=wrap;rounded=1;strokeColor=none;glass=0;" parent="1" vertex="1">
          <mxGeometry x="318.22" y="111.63000000000002" width="30" height="6.5" as="geometry" />
        </mxCell>
        <mxCell id="tlwNC5iyou4UT4noHv4N-38" style="edgeStyle=orthogonalEdgeStyle;rounded=0;orthogonalLoop=1;jettySize=auto;html=1;endArrow=oval;endFill=0;" parent="1" edge="1">
          <mxGeometry relative="1" as="geometry">
            <mxPoint x="226.22999999999993" y="80.74000000000004" as="sourcePoint" />
            <mxPoint x="224.41" y="101.13000000000002" as="targetPoint" />
          </mxGeometry>
        </mxCell>
        <mxCell id="tlwNC5iyou4UT4noHv4N-42" style="edgeStyle=orthogonalEdgeStyle;rounded=0;orthogonalLoop=1;jettySize=auto;html=1;exitX=1;exitY=0.5;exitDx=0;exitDy=0;endArrow=oval;endFill=0;" parent="1" edge="1">
          <mxGeometry relative="1" as="geometry">
            <mxPoint x="316.88" y="81.42" as="sourcePoint" />
            <mxPoint x="340" y="81.42" as="targetPoint" />
          </mxGeometry>
        </mxCell>
        <mxCell id="tlwNC5iyou4UT4noHv4N-46" style="edgeStyle=orthogonalEdgeStyle;rounded=0;orthogonalLoop=1;jettySize=auto;html=1;exitX=0.75;exitY=0;exitDx=0;exitDy=0;endArrow=oval;endFill=0;" parent="1" edge="1">
          <mxGeometry relative="1" as="geometry">
            <mxPoint x="351.6" y="211.43" as="targetPoint" />
            <mxPoint x="350.2299999999999" y="194.71000000000004" as="sourcePoint" />
          </mxGeometry>
        </mxCell>
        <mxCell id="tlwNC5iyou4UT4noHv4N-47" style="edgeStyle=orthogonalEdgeStyle;rounded=0;orthogonalLoop=1;jettySize=auto;html=1;exitX=0.004;exitY=0.941;exitDx=0;exitDy=0;endArrow=oval;endFill=0;exitPerimeter=0;" parent="1" source="sCdLPjGgIY4ofrzn0zne-1" edge="1">
          <mxGeometry relative="1" as="geometry">
            <mxPoint x="339.43000000000006" y="209.7" as="sourcePoint" />
            <mxPoint x="320" y="210" as="targetPoint" />
            <Array as="points">
              <mxPoint x="332" y="197" />
              <mxPoint x="332" y="210" />
            </Array>
          </mxGeometry>
        </mxCell>
        <mxCell id="tlwNC5iyou4UT4noHv4N-49" value="&lt;font style=&quot;font-size: 8px;&quot;&gt;Causa&lt;/font&gt;" style="text;html=1;align=center;verticalAlign=middle;whiteSpace=wrap;rounded=1;strokeColor=none;" parent="1" vertex="1">
          <mxGeometry x="331.81" y="209.71" width="40" height="15" as="geometry" />
        </mxCell>
        <mxCell id="tlwNC5iyou4UT4noHv4N-50" value="&lt;font style=&quot;font-size: 8px;&quot;&gt;Data&lt;/font&gt;" style="text;html=1;align=center;verticalAlign=middle;whiteSpace=wrap;rounded=1;strokeColor=none;" parent="1" vertex="1">
          <mxGeometry x="353.5" y="134.73" width="40" height="20" as="geometry" />
        </mxCell>
        <mxCell id="tlwNC5iyou4UT4noHv4N-51" style="edgeStyle=orthogonalEdgeStyle;rounded=0;orthogonalLoop=1;jettySize=auto;html=1;exitX=0.75;exitY=0;exitDx=0;exitDy=0;endArrow=oval;endFill=0;" parent="1" edge="1">
          <mxGeometry relative="1" as="geometry">
            <mxPoint x="420" y="211" as="targetPoint" />
            <mxPoint x="418.6200000000001" y="194.71" as="sourcePoint" />
          </mxGeometry>
        </mxCell>
        <mxCell id="tlwNC5iyou4UT4noHv4N-52" value="&lt;font style=&quot;font-size: 8px;&quot;&gt;Significato&lt;/font&gt;&lt;div style=&quot;line-height: 20%;&quot;&gt;&lt;font style=&quot;font-size: 8px;&quot;&gt;Storico&lt;/font&gt;&lt;/div&gt;" style="text;html=1;align=center;verticalAlign=middle;whiteSpace=wrap;rounded=1;strokeColor=none;" parent="1" vertex="1">
          <mxGeometry x="423.42" y="201.81" width="40" height="20" as="geometry" />
        </mxCell>
        <mxCell id="tlwNC5iyou4UT4noHv4N-68" style="edgeStyle=orthogonalEdgeStyle;rounded=0;orthogonalLoop=1;jettySize=auto;html=1;exitX=-0.002;exitY=0.831;exitDx=0;exitDy=0;entryX=0.578;entryY=0.124;entryDx=0;entryDy=0;entryPerimeter=0;endArrow=oval;endFill=0;exitPerimeter=0;" parent="1" source="esEqVlL6re1M1a8fyDZB-14" edge="1">
          <mxGeometry relative="1" as="geometry">
            <mxPoint x="256.18" y="574.14" as="sourcePoint" />
            <mxPoint x="256.2999999999999" y="584.6088482490272" as="targetPoint" />
          </mxGeometry>
        </mxCell>
        <mxCell id="tlwNC5iyou4UT4noHv4N-69" value="&lt;font style=&quot;font-size: 9px;&quot;&gt;Traduzione&lt;/font&gt;" style="text;html=1;align=center;verticalAlign=middle;whiteSpace=wrap;rounded=0;" parent="1" vertex="1">
          <mxGeometry x="236.43" y="582.36" width="40" height="17.314202334630348" as="geometry" />
        </mxCell>
        <mxCell id="tlwNC5iyou4UT4noHv4N-73" style="edgeStyle=orthogonalEdgeStyle;rounded=0;orthogonalLoop=1;jettySize=auto;html=1;exitX=1;exitY=0.5;exitDx=0;exitDy=0;endArrow=oval;endFill=0;" parent="1" edge="1">
          <mxGeometry relative="1" as="geometry">
            <mxPoint x="381.43" y="560.0200000000001" as="sourcePoint" />
            <mxPoint x="404.55" y="560.0200000000001" as="targetPoint" />
          </mxGeometry>
        </mxCell>
        <mxCell id="tlwNC5iyou4UT4noHv4N-74" value="&lt;font style=&quot;font-size: 9px;&quot;&gt;Tema&lt;/font&gt;" style="text;html=1;align=center;verticalAlign=middle;whiteSpace=wrap;rounded=0;" parent="1" vertex="1">
          <mxGeometry x="404.05" y="550" width="35" height="18" as="geometry" />
        </mxCell>
        <mxCell id="tlwNC5iyou4UT4noHv4N-75" style="edgeStyle=orthogonalEdgeStyle;rounded=0;orthogonalLoop=1;jettySize=auto;html=1;exitX=1;exitY=0.5;exitDx=0;exitDy=0;endArrow=oval;endFill=0;" parent="1" edge="1">
          <mxGeometry relative="1" as="geometry">
            <mxPoint x="381.43" y="575.25" as="sourcePoint" />
            <mxPoint x="410" y="580" as="targetPoint" />
          </mxGeometry>
        </mxCell>
        <mxCell id="tlwNC5iyou4UT4noHv4N-76" value="&lt;font style=&quot;font-size: 9px;&quot;&gt;Materiale&lt;/font&gt;" style="text;html=1;align=center;verticalAlign=middle;whiteSpace=wrap;rounded=0;" parent="1" vertex="1">
          <mxGeometry x="392.5" y="576.88" width="35" height="18" as="geometry" />
        </mxCell>
        <mxCell id="tlwNC5iyou4UT4noHv4N-87" style="edgeStyle=orthogonalEdgeStyle;rounded=0;orthogonalLoop=1;jettySize=auto;html=1;exitX=1;exitY=0.5;exitDx=0;exitDy=0;endArrow=oval;endFill=0;" parent="1" edge="1">
          <mxGeometry relative="1" as="geometry">
            <mxPoint x="-140.12" y="82.5" as="targetPoint" />
            <mxPoint x="-160" y="82.5" as="sourcePoint" />
            <Array as="points">
              <mxPoint x="-145.12" y="82.5" />
            </Array>
          </mxGeometry>
        </mxCell>
        <mxCell id="tlwNC5iyou4UT4noHv4N-88" value="&lt;span style=&quot;font-size: 8px;&quot;&gt;Data&amp;nbsp;&lt;/span&gt;&lt;div style=&quot;line-height: 20%;&quot;&gt;&lt;span style=&quot;font-size: 8px;&quot;&gt;di nascita&lt;/span&gt;&lt;/div&gt;" style="text;html=1;align=center;verticalAlign=middle;whiteSpace=wrap;rounded=1;strokeColor=none;" parent="1" vertex="1">
          <mxGeometry x="-141" y="71" width="37" height="21" as="geometry" />
        </mxCell>
        <mxCell id="tlwNC5iyou4UT4noHv4N-93" style="edgeStyle=orthogonalEdgeStyle;rounded=0;orthogonalLoop=1;jettySize=auto;html=1;exitX=0.5;exitY=1;exitDx=0;exitDy=0;" parent="1" edge="1">
          <mxGeometry relative="1" as="geometry">
            <mxPoint x="218.76" y="-158.13" as="sourcePoint" />
            <mxPoint x="218.76" y="-158.13" as="targetPoint" />
          </mxGeometry>
        </mxCell>
        <mxCell id="tlwNC5iyou4UT4noHv4N-106" value="" style="endArrow=oval;html=1;rounded=0;endFill=0;exitX=0;exitY=0.75;exitDx=0;exitDy=0;entryX=0.677;entryY=0.006;entryDx=0;entryDy=0;entryPerimeter=0;" parent="1" target="tlwNC5iyou4UT4noHv4N-107" edge="1">
          <mxGeometry width="50" height="50" relative="1" as="geometry">
            <mxPoint x="16.129999999999942" y="274.71000000000004" as="sourcePoint" />
            <mxPoint x="-0.06" y="275.11" as="targetPoint" />
            <Array as="points" />
          </mxGeometry>
        </mxCell>
        <mxCell id="tlwNC5iyou4UT4noHv4N-107" value="&lt;font style=&quot;font-size: 8px;&quot;&gt;Descrizione&lt;/font&gt;" style="text;html=1;align=center;verticalAlign=middle;whiteSpace=wrap;rounded=0;" parent="1" vertex="1">
          <mxGeometry x="-27.740000000000006" y="274.71" width="41.24" height="14.37" as="geometry" />
        </mxCell>
        <mxCell id="tlwNC5iyou4UT4noHv4N-108" style="edgeStyle=orthogonalEdgeStyle;rounded=0;orthogonalLoop=1;jettySize=auto;html=1;exitX=0.25;exitY=1;exitDx=0;exitDy=0;endArrow=oval;endFill=0;" parent="1" edge="1">
          <mxGeometry relative="1" as="geometry">
            <mxPoint x="65.03000000000003" y="270.62" as="sourcePoint" />
            <mxPoint x="66.12" y="296.12" as="targetPoint" />
          </mxGeometry>
        </mxCell>
        <mxCell id="tlwNC5iyou4UT4noHv4N-109" style="edgeStyle=orthogonalEdgeStyle;rounded=0;orthogonalLoop=1;jettySize=auto;html=1;exitX=1;exitY=0.75;exitDx=0;exitDy=0;endArrow=oval;endFill=0;" parent="1" source="esEqVlL6re1M1a8fyDZB-8" edge="1">
          <mxGeometry relative="1" as="geometry">
            <mxPoint x="94.61000000000003" y="283.12" as="sourcePoint" />
            <mxPoint x="95.7" y="308.62" as="targetPoint" />
          </mxGeometry>
        </mxCell>
        <mxCell id="tlwNC5iyou4UT4noHv4N-110" value="&lt;font style=&quot;font-size: 8px;&quot;&gt;Lingua&lt;/font&gt;" style="text;html=1;align=center;verticalAlign=middle;whiteSpace=wrap;rounded=0;" parent="1" vertex="1">
          <mxGeometry x="91.32999999999998" y="310.12" width="13.49" height="9.75" as="geometry" />
        </mxCell>
        <mxCell id="tlwNC5iyou4UT4noHv4N-111" value="&lt;font style=&quot;font-size: 8px;&quot;&gt;Religione&lt;/font&gt;" style="text;html=1;align=center;verticalAlign=middle;whiteSpace=wrap;rounded=0;" parent="1" vertex="1">
          <mxGeometry x="60.15999999999999" y="296.12" width="12" height="14" as="geometry" />
        </mxCell>
        <mxCell id="N2UFPpM3rNno3gbZ0bzp-10" style="edgeStyle=orthogonalEdgeStyle;rounded=0;orthogonalLoop=1;jettySize=auto;html=1;endArrow=none;endFill=0;" parent="1" source="esEqVlL6re1M1a8fyDZB-8" target="N2UFPpM3rNno3gbZ0bzp-7" edge="1">
          <mxGeometry relative="1" as="geometry" />
        </mxCell>
        <mxCell id="esEqVlL6re1M1a8fyDZB-8" value="Civiltà" style="whiteSpace=wrap;html=1;align=center;" parent="1" vertex="1">
          <mxGeometry x="16.18999999999998" y="253.10000000000002" width="70" height="30" as="geometry" />
        </mxCell>
        <mxCell id="tlwNC5iyou4UT4noHv4N-117" value="&lt;font style=&quot;font-size: 9px;&quot;&gt;Descrizione&lt;/font&gt;" style="text;html=1;align=center;verticalAlign=middle;whiteSpace=wrap;rounded=0;" parent="1" vertex="1">
          <mxGeometry x="-55.30999999999993" y="682.4910116731518" width="40" height="17.314202334630348" as="geometry" />
        </mxCell>
        <mxCell id="J-srXguDTdXTlO8HcEIJ-1" value="&lt;font style=&quot;font-size: 8px;&quot;&gt;Ora&lt;/font&gt;" style="text;html=1;align=center;verticalAlign=middle;whiteSpace=wrap;rounded=1;strokeColor=none;glass=0;" parent="1" vertex="1">
          <mxGeometry x="-76.77000000000001" y="131.98" width="50" height="15" as="geometry" />
        </mxCell>
        <mxCell id="J-srXguDTdXTlO8HcEIJ-2" value="&lt;font style=&quot;font-size: 8px;&quot;&gt;Data&lt;/font&gt;" style="text;html=1;align=center;verticalAlign=middle;whiteSpace=wrap;rounded=1;strokeColor=none;glass=0;" parent="1" vertex="1">
          <mxGeometry x="-79.44" y="120" width="50" height="15" as="geometry" />
        </mxCell>
        <mxCell id="J-srXguDTdXTlO8HcEIJ-3" style="edgeStyle=orthogonalEdgeStyle;rounded=0;orthogonalLoop=1;jettySize=auto;html=1;exitX=0;exitY=0;exitDx=0;exitDy=0;endArrow=oval;endFill=0;" parent="1" edge="1">
          <mxGeometry relative="1" as="geometry">
            <mxPoint x="-39.9" y="130.47999999999996" as="targetPoint" />
            <mxPoint x="-20.520000000000007" y="130.47999999999996" as="sourcePoint" />
            <Array as="points" />
          </mxGeometry>
        </mxCell>
        <mxCell id="J-srXguDTdXTlO8HcEIJ-4" style="edgeStyle=orthogonalEdgeStyle;rounded=0;orthogonalLoop=1;jettySize=auto;html=1;endArrow=oval;endFill=0;" parent="1" edge="1">
          <mxGeometry relative="1" as="geometry">
            <mxPoint x="-39.89" y="140.60999999999996" as="targetPoint" />
            <mxPoint x="-19.89" y="140.60999999999996" as="sourcePoint" />
            <Array as="points" />
          </mxGeometry>
        </mxCell>
        <mxCell id="J-srXguDTdXTlO8HcEIJ-5" value="&lt;p style=&quot;line-height: 110%;&quot;&gt;&lt;font style=&quot;font-size: 7px;&quot;&gt;DataPart&lt;/font&gt;&lt;/p&gt;" style="ellipse;whiteSpace=wrap;html=1;" parent="1" vertex="1">
          <mxGeometry x="-27.889999999999993" y="123.10999999999996" width="36.12" height="20" as="geometry" />
        </mxCell>
        <mxCell id="J-srXguDTdXTlO8HcEIJ-7" value="&lt;font style=&quot;font-size: 8px;&quot;&gt;Ora&lt;/font&gt;" style="text;html=1;align=center;verticalAlign=middle;whiteSpace=wrap;rounded=1;strokeColor=none;glass=0;" parent="1" vertex="1">
          <mxGeometry x="-51" y="623" width="50" height="15" as="geometry" />
        </mxCell>
        <mxCell id="J-srXguDTdXTlO8HcEIJ-8" value="&lt;font style=&quot;font-size: 8px;&quot;&gt;Data&lt;/font&gt;" style="text;html=1;align=center;verticalAlign=middle;whiteSpace=wrap;rounded=1;strokeColor=none;glass=0;" parent="1" vertex="1">
          <mxGeometry x="-49.04999999999999" y="614.31" width="50" height="15" as="geometry" />
        </mxCell>
        <mxCell id="J-srXguDTdXTlO8HcEIJ-9" style="edgeStyle=orthogonalEdgeStyle;rounded=0;orthogonalLoop=1;jettySize=auto;html=1;exitX=0;exitY=0;exitDx=0;exitDy=0;endArrow=oval;endFill=0;" parent="1" edge="1">
          <mxGeometry relative="1" as="geometry">
            <mxPoint x="-39.050000000000004" y="632.4899999999999" as="targetPoint" />
            <mxPoint x="-58.42999999999999" y="632.4899999999999" as="sourcePoint" />
            <Array as="points" />
          </mxGeometry>
        </mxCell>
        <mxCell id="J-srXguDTdXTlO8HcEIJ-10" style="edgeStyle=orthogonalEdgeStyle;rounded=0;orthogonalLoop=1;jettySize=auto;html=1;endArrow=oval;endFill=0;" parent="1" edge="1">
          <mxGeometry relative="1" as="geometry">
            <mxPoint x="-39.06999999999999" y="622.48" as="targetPoint" />
            <mxPoint x="-59.51" y="622.8600000000001" as="sourcePoint" />
            <Array as="points" />
          </mxGeometry>
        </mxCell>
        <mxCell id="J-srXguDTdXTlO8HcEIJ-14" value="" style="endArrow=none;html=1;rounded=0;entryX=0.551;entryY=1.003;entryDx=0;entryDy=0;entryPerimeter=0;" parent="1" edge="1">
          <mxGeometry width="50" height="50" relative="1" as="geometry">
            <mxPoint x="-9.310000000000002" y="166.15999999999997" as="sourcePoint" />
            <mxPoint x="-9.310000000000002" y="143.10000000000002" as="targetPoint" />
          </mxGeometry>
        </mxCell>
        <mxCell id="J-srXguDTdXTlO8HcEIJ-17" value="" style="endArrow=none;html=1;rounded=0;" parent="1" edge="1">
          <mxGeometry width="50" height="50" relative="1" as="geometry">
            <mxPoint x="-70.49" y="656.1700000000001" as="sourcePoint" />
            <mxPoint x="-70.49" y="636.1700000000001" as="targetPoint" />
          </mxGeometry>
        </mxCell>
        <mxCell id="J-srXguDTdXTlO8HcEIJ-11" value="&lt;p style=&quot;line-height: 110%;&quot;&gt;&lt;font style=&quot;font-size: 7px;&quot;&gt;DataInt&lt;/font&gt;&lt;/p&gt;" style="ellipse;whiteSpace=wrap;html=1;" parent="1" vertex="1">
          <mxGeometry x="-88.84" y="616.1699999999998" width="36.12" height="20" as="geometry" />
        </mxCell>
        <mxCell id="VipYrZMZVy-3Rap9Ppn6-1" style="edgeStyle=orthogonalEdgeStyle;rounded=0;orthogonalLoop=1;jettySize=auto;html=1;endArrow=oval;endFill=0;" parent="1" edge="1">
          <mxGeometry relative="1" as="geometry">
            <mxPoint x="259.9599999999999" y="80.74000000000004" as="sourcePoint" />
            <mxPoint x="258" y="120" as="targetPoint" />
          </mxGeometry>
        </mxCell>
        <mxCell id="esEqVlL6re1M1a8fyDZB-7" value="Oggetti Informatici" style="whiteSpace=wrap;html=1;align=center;" parent="1" vertex="1">
          <mxGeometry x="216.88" y="51.25" width="100" height="35" as="geometry" />
        </mxCell>
        <mxCell id="VipYrZMZVy-3Rap9Ppn6-2" value="&lt;font style=&quot;font-size: 8px;&quot;&gt;TIPO&lt;/font&gt;" style="text;html=1;align=center;verticalAlign=middle;whiteSpace=wrap;rounded=1;strokeColor=none;glass=0;" parent="1" vertex="1">
          <mxGeometry x="243" y="123.11" width="30" height="7.37" as="geometry" />
        </mxCell>
        <mxCell id="VipYrZMZVy-3Rap9Ppn6-3" style="edgeStyle=orthogonalEdgeStyle;rounded=0;orthogonalLoop=1;jettySize=auto;html=1;endArrow=oval;endFill=0;" parent="1" edge="1">
          <mxGeometry relative="1" as="geometry">
            <mxPoint x="387.88" y="226.81" as="targetPoint" />
            <mxPoint x="387.88" y="196.81" as="sourcePoint" />
          </mxGeometry>
        </mxCell>
        <mxCell id="VipYrZMZVy-3Rap9Ppn6-4" value="&lt;font style=&quot;font-size: 8px;&quot;&gt;TIPO&lt;/font&gt;" style="text;html=1;align=center;verticalAlign=middle;whiteSpace=wrap;rounded=1;strokeColor=none;" parent="1" vertex="1">
          <mxGeometry x="368.49" y="224.71" width="40" height="17" as="geometry" />
        </mxCell>
        <mxCell id="VipYrZMZVy-3Rap9Ppn6-6" style="edgeStyle=orthogonalEdgeStyle;rounded=0;orthogonalLoop=1;jettySize=auto;html=1;endArrow=oval;endFill=0;" parent="1" edge="1">
          <mxGeometry relative="1" as="geometry">
            <mxPoint x="369.71999999999997" y="388.13" as="targetPoint" />
            <mxPoint x="369.71999999999997" y="358.13" as="sourcePoint" />
          </mxGeometry>
        </mxCell>
        <mxCell id="VipYrZMZVy-3Rap9Ppn6-7" value="&lt;font style=&quot;font-size: 8px;&quot;&gt;TIPO&lt;/font&gt;" style="text;html=1;align=center;verticalAlign=middle;whiteSpace=wrap;rounded=1;strokeColor=none;" parent="1" vertex="1">
          <mxGeometry x="349.87" y="387.90999999999997" width="40" height="17" as="geometry" />
        </mxCell>
        <mxCell id="VipYrZMZVy-3Rap9Ppn6-8" style="edgeStyle=orthogonalEdgeStyle;rounded=0;orthogonalLoop=1;jettySize=auto;html=1;exitX=1.002;exitY=0.878;exitDx=0;exitDy=0;endArrow=oval;endFill=0;exitPerimeter=0;" parent="1" edge="1">
          <mxGeometry relative="1" as="geometry">
            <mxPoint x="330.37" y="783.71" as="sourcePoint" />
            <mxPoint x="375" y="783.71" as="targetPoint" />
          </mxGeometry>
        </mxCell>
        <mxCell id="VipYrZMZVy-3Rap9Ppn6-9" value="&lt;span style=&quot;font-size: 8px;&quot;&gt;TIPO&lt;/span&gt;" style="text;html=1;align=center;verticalAlign=middle;whiteSpace=wrap;rounded=1;strokeColor=none;" parent="1" vertex="1">
          <mxGeometry x="371.25" y="770" width="39" height="24" as="geometry" />
        </mxCell>
        <mxCell id="VipYrZMZVy-3Rap9Ppn6-10" style="edgeStyle=orthogonalEdgeStyle;rounded=0;orthogonalLoop=1;jettySize=auto;html=1;endArrow=oval;endFill=0;entryX=0.5;entryY=0;entryDx=0;entryDy=0;" parent="1" target="VipYrZMZVy-3Rap9Ppn6-25" edge="1">
          <mxGeometry relative="1" as="geometry">
            <mxPoint x="-57.869999999999955" y="497.1899999999999" as="targetPoint" />
            <Array as="points" />
            <mxPoint x="-57.869999999999955" y="488.25999999999993" as="sourcePoint" />
          </mxGeometry>
        </mxCell>
        <mxCell id="VipYrZMZVy-3Rap9Ppn6-11" value="&lt;font style=&quot;font-size: 9px;&quot;&gt;Materiale&lt;/font&gt;" style="text;html=1;align=center;verticalAlign=middle;whiteSpace=wrap;rounded=0;" parent="1" vertex="1">
          <mxGeometry x="-26.769999999999953" y="495.3699999999999" width="35" height="15" as="geometry" />
        </mxCell>
        <mxCell id="VipYrZMZVy-3Rap9Ppn6-13" value="&lt;font style=&quot;font-size: 9px;&quot;&gt;Descrizione&lt;/font&gt;" style="text;html=1;align=center;verticalAlign=middle;whiteSpace=wrap;rounded=0;" parent="1" vertex="1">
          <mxGeometry x="-23.809999999999945" y="434.7799999999999" width="40" height="17" as="geometry" />
        </mxCell>
        <mxCell id="VipYrZMZVy-3Rap9Ppn6-14" value="&lt;font style=&quot;font-size: 9px;&quot;&gt;Nome&lt;/font&gt;" style="text;html=1;align=center;verticalAlign=middle;whiteSpace=wrap;rounded=0;" parent="1" vertex="1">
          <mxGeometry x="-77.80999999999996" y="434.7799999999999" width="40" height="17" as="geometry" />
        </mxCell>
        <mxCell id="VipYrZMZVy-3Rap9Ppn6-15" style="edgeStyle=orthogonalEdgeStyle;rounded=0;orthogonalLoop=1;jettySize=auto;html=1;endArrow=oval;endFill=0;" parent="1" edge="1">
          <mxGeometry relative="1" as="geometry">
            <mxPoint x="-58.01999999999999" y="477.0299999999999" as="sourcePoint" />
            <mxPoint x="-58.01999999999999" y="453.2799999999999" as="targetPoint" />
            <Array as="points">
              <mxPoint x="-58.01999999999999" y="477.0299999999999" />
            </Array>
          </mxGeometry>
        </mxCell>
        <mxCell id="VipYrZMZVy-3Rap9Ppn6-16" value="&lt;font style=&quot;font-size: 8px;&quot;&gt;(1,1)&lt;/font&gt;" style="text;html=1;align=center;verticalAlign=middle;whiteSpace=wrap;rounded=1;strokeColor=none;glass=0;" parent="1" vertex="1">
          <mxGeometry x="-34.97999999999996" y="404.58999999999986" width="22.5" height="6.75" as="geometry" />
        </mxCell>
        <mxCell id="VipYrZMZVy-3Rap9Ppn6-17" value="&lt;font style=&quot;font-size: 9px;&quot;&gt;Stile&lt;/font&gt;" style="text;html=1;align=center;verticalAlign=middle;whiteSpace=wrap;rounded=0;" parent="1" vertex="1">
          <mxGeometry x="-17.809999999999945" y="469.08" width="40" height="15" as="geometry" />
        </mxCell>
        <mxCell id="VipYrZMZVy-3Rap9Ppn6-18" value="&lt;font style=&quot;font-size: 9px;&quot;&gt;Scopo&lt;/font&gt;" style="text;html=1;align=center;verticalAlign=middle;whiteSpace=wrap;rounded=0;" parent="1" vertex="1">
          <mxGeometry x="15.320000000000048" y="475.12999999999994" width="40" height="17" as="geometry" />
        </mxCell>
        <mxCell id="VipYrZMZVy-3Rap9Ppn6-19" style="edgeStyle=orthogonalEdgeStyle;rounded=0;orthogonalLoop=1;jettySize=auto;html=1;endArrow=oval;endFill=0;" parent="1" edge="1">
          <mxGeometry relative="1" as="geometry">
            <mxPoint x="-15.309999999999947" y="486.5599999999999" as="sourcePoint" />
            <mxPoint x="1.690000000000051" y="486.56" as="targetPoint" />
          </mxGeometry>
        </mxCell>
        <mxCell id="VipYrZMZVy-3Rap9Ppn6-20" value="" style="endArrow=none;html=1;rounded=0;entryX=0.5;entryY=1;entryDx=0;entryDy=0;" parent="1" edge="1">
          <mxGeometry width="50" height="50" relative="1" as="geometry">
            <mxPoint x="89" y="597" as="sourcePoint" />
            <mxPoint x="89.30000000000017" y="488" as="targetPoint" />
          </mxGeometry>
        </mxCell>
        <mxCell id="VipYrZMZVy-3Rap9Ppn6-21" value="&lt;span style=&quot;font-size: 8px;&quot;&gt;(1,N)&lt;/span&gt;" style="text;html=1;align=center;verticalAlign=middle;whiteSpace=wrap;rounded=1;strokeColor=none;glass=0;" parent="1" vertex="1">
          <mxGeometry x="-37.809999999999945" y="351.14000000000004" width="22.5" height="6.75" as="geometry" />
        </mxCell>
        <mxCell id="VipYrZMZVy-3Rap9Ppn6-23" value="App2" style="shape=rhombus;perimeter=rhombusPerimeter;whiteSpace=wrap;html=1;align=center;" parent="1" vertex="1">
          <mxGeometry x="52.07000000000005" y="362.41" width="69.86" height="42.18" as="geometry" />
        </mxCell>
        <mxCell id="VipYrZMZVy-3Rap9Ppn6-24" style="edgeStyle=orthogonalEdgeStyle;rounded=0;orthogonalLoop=1;jettySize=auto;html=1;endArrow=oval;endFill=0;" parent="1" edge="1">
          <mxGeometry relative="1" as="geometry">
            <mxPoint x="-17.809999999999945" y="477.12999999999994" as="sourcePoint" />
            <mxPoint x="-17.809999999999945" y="453.37999999999994" as="targetPoint" />
            <Array as="points">
              <mxPoint x="-17.809999999999945" y="477.12999999999994" />
            </Array>
          </mxGeometry>
        </mxCell>
        <mxCell id="VipYrZMZVy-3Rap9Ppn6-25" value="&lt;font style=&quot;font-size: 9px;&quot;&gt;Colore&lt;/font&gt;" style="text;html=1;align=center;verticalAlign=middle;whiteSpace=wrap;rounded=0;" parent="1" vertex="1">
          <mxGeometry x="-77.80999999999996" y="504.5599999999999" width="40" height="17" as="geometry" />
        </mxCell>
        <mxCell id="VipYrZMZVy-3Rap9Ppn6-26" style="edgeStyle=orthogonalEdgeStyle;rounded=0;orthogonalLoop=1;jettySize=auto;html=1;endArrow=oval;endFill=0;entryX=0.75;entryY=0;entryDx=0;entryDy=0;" parent="1" edge="1">
          <mxGeometry relative="1" as="geometry">
            <mxPoint x="-15.309999999999945" y="495.9499999999998" as="targetPoint" />
            <Array as="points">
              <mxPoint x="-15.309999999999945" y="486.01999999999987" />
              <mxPoint x="-15.309999999999945" y="486.01999999999987" />
            </Array>
            <mxPoint x="-15.309999999999945" y="487.01999999999987" as="sourcePoint" />
          </mxGeometry>
        </mxCell>
        <mxCell id="VipYrZMZVy-3Rap9Ppn6-27" value="Abito" style="whiteSpace=wrap;html=1;align=center;" parent="1" vertex="1">
          <mxGeometry x="-66.80999999999996" y="468.4299999999999" width="57.5" height="20" as="geometry" />
        </mxCell>
        <mxCell id="VipYrZMZVy-3Rap9Ppn6-28" style="edgeStyle=orthogonalEdgeStyle;rounded=0;orthogonalLoop=1;jettySize=auto;html=1;endArrow=oval;endFill=0;entryX=0.5;entryY=0;entryDx=0;entryDy=0;" parent="1" target="VipYrZMZVy-3Rap9Ppn6-36" edge="1">
          <mxGeometry relative="1" as="geometry">
            <mxPoint x="72.01000000000009" y="497.4499999999999" as="targetPoint" />
            <Array as="points" />
            <mxPoint x="72.01000000000009" y="488.5199999999999" as="sourcePoint" />
          </mxGeometry>
        </mxCell>
        <mxCell id="VipYrZMZVy-3Rap9Ppn6-29" value="&lt;font style=&quot;font-size: 9px;&quot;&gt;Materiale&lt;/font&gt;" style="text;html=1;align=center;verticalAlign=middle;whiteSpace=wrap;rounded=0;" parent="1" vertex="1">
          <mxGeometry x="92.02000000000008" y="495.9499999999999" width="35" height="15" as="geometry" />
        </mxCell>
        <mxCell id="VipYrZMZVy-3Rap9Ppn6-31" value="&lt;font style=&quot;font-size: 9px;&quot;&gt;Descrizione&lt;/font&gt;" style="text;html=1;align=center;verticalAlign=middle;whiteSpace=wrap;rounded=0;" parent="1" vertex="1">
          <mxGeometry x="106.07000000000004" y="435.0399999999999" width="40" height="17" as="geometry" />
        </mxCell>
        <mxCell id="VipYrZMZVy-3Rap9Ppn6-32" value="&lt;font style=&quot;font-size: 9px;&quot;&gt;Nome&lt;/font&gt;" style="text;html=1;align=center;verticalAlign=middle;whiteSpace=wrap;rounded=0;" parent="1" vertex="1">
          <mxGeometry x="52.07000000000005" y="435.0399999999999" width="40" height="17" as="geometry" />
        </mxCell>
        <mxCell id="VipYrZMZVy-3Rap9Ppn6-33" style="edgeStyle=orthogonalEdgeStyle;rounded=0;orthogonalLoop=1;jettySize=auto;html=1;endArrow=oval;endFill=0;" parent="1" edge="1">
          <mxGeometry relative="1" as="geometry">
            <mxPoint x="71.86" y="477.2899999999999" as="sourcePoint" />
            <mxPoint x="71.86" y="453.5399999999999" as="targetPoint" />
            <Array as="points">
              <mxPoint x="71.86" y="477.2899999999999" />
            </Array>
          </mxGeometry>
        </mxCell>
        <mxCell id="VipYrZMZVy-3Rap9Ppn6-34" style="edgeStyle=orthogonalEdgeStyle;rounded=0;orthogonalLoop=1;jettySize=auto;html=1;exitX=1.001;exitY=0.609;exitDx=0;exitDy=0;endArrow=oval;endFill=0;exitPerimeter=0;" parent="1" edge="1">
          <mxGeometry relative="1" as="geometry">
            <mxPoint x="64.3900000000001" y="485.39000000000016" as="sourcePoint" />
            <mxPoint x="52.389999999999986" y="485.40000000000015" as="targetPoint" />
          </mxGeometry>
        </mxCell>
        <mxCell id="VipYrZMZVy-3Rap9Ppn6-35" style="edgeStyle=orthogonalEdgeStyle;rounded=0;orthogonalLoop=1;jettySize=auto;html=1;endArrow=oval;endFill=0;" parent="1" edge="1">
          <mxGeometry relative="1" as="geometry">
            <mxPoint x="112.07000000000005" y="477.38999999999993" as="sourcePoint" />
            <mxPoint x="112.07000000000005" y="453.63999999999993" as="targetPoint" />
            <Array as="points">
              <mxPoint x="112.07000000000005" y="477.38999999999993" />
            </Array>
          </mxGeometry>
        </mxCell>
        <mxCell id="VipYrZMZVy-3Rap9Ppn6-36" value="&lt;font style=&quot;font-size: 9px;&quot;&gt;Colore&lt;/font&gt;" style="text;html=1;align=center;verticalAlign=middle;whiteSpace=wrap;rounded=0;" parent="1" vertex="1">
          <mxGeometry x="52.07000000000005" y="504.8199999999999" width="40" height="17" as="geometry" />
        </mxCell>
        <mxCell id="VipYrZMZVy-3Rap9Ppn6-37" style="edgeStyle=orthogonalEdgeStyle;rounded=0;orthogonalLoop=1;jettySize=auto;html=1;endArrow=oval;endFill=0;entryX=0.75;entryY=0;entryDx=0;entryDy=0;" parent="1" edge="1">
          <mxGeometry relative="1" as="geometry">
            <mxPoint x="106.07000000000004" y="496.74999999999983" as="targetPoint" />
            <Array as="points">
              <mxPoint x="106.07000000000004" y="486.8199999999999" />
              <mxPoint x="106.07000000000004" y="486.8199999999999" />
            </Array>
            <mxPoint x="106.07000000000004" y="487.8199999999999" as="sourcePoint" />
          </mxGeometry>
        </mxCell>
        <mxCell id="VipYrZMZVy-3Rap9Ppn6-38" value="App1" style="shape=rhombus;perimeter=rhombusPerimeter;whiteSpace=wrap;html=1;align=center;" parent="1" vertex="1">
          <mxGeometry x="-72.98999999999997" y="362.41" width="69.86" height="42.18" as="geometry" />
        </mxCell>
        <mxCell id="VipYrZMZVy-3Rap9Ppn6-39" value="" style="endArrow=none;html=1;rounded=0;entryX=0.5;entryY=1;entryDx=0;entryDy=0;exitX=0.5;exitY=0;exitDx=0;exitDy=0;" parent="1" source="VipYrZMZVy-3Rap9Ppn6-27" target="VipYrZMZVy-3Rap9Ppn6-38" edge="1">
          <mxGeometry width="50" height="50" relative="1" as="geometry">
            <mxPoint x="-39.809999999999945" y="425.12999999999994" as="sourcePoint" />
            <mxPoint x="10.190000000000053" y="375.12999999999994" as="targetPoint" />
          </mxGeometry>
        </mxCell>
        <mxCell id="VipYrZMZVy-3Rap9Ppn6-40" value="" style="endArrow=none;html=1;rounded=0;entryX=0.5;entryY=1;entryDx=0;entryDy=0;exitX=0.388;exitY=0.053;exitDx=0;exitDy=0;exitPerimeter=0;" parent="1" source="VipYrZMZVy-3Rap9Ppn6-41" target="VipYrZMZVy-3Rap9Ppn6-23" edge="1">
          <mxGeometry width="50" height="50" relative="1" as="geometry">
            <mxPoint x="87" y="430" as="sourcePoint" />
            <mxPoint x="150.19000000000005" y="395.12999999999994" as="targetPoint" />
          </mxGeometry>
        </mxCell>
        <mxCell id="VipYrZMZVy-3Rap9Ppn6-41" value="Accessorio" style="whiteSpace=wrap;html=1;align=center;" parent="1" vertex="1">
          <mxGeometry x="63.07000000000006" y="468.6899999999999" width="61" height="20" as="geometry" />
        </mxCell>
        <mxCell id="VipYrZMZVy-3Rap9Ppn6-42" value="" style="endArrow=none;html=1;rounded=0;exitX=0.5;exitY=0;exitDx=0;exitDy=0;" parent="1" source="VipYrZMZVy-3Rap9Ppn6-38" edge="1">
          <mxGeometry width="50" height="50" relative="1" as="geometry">
            <mxPoint x="-39.809999999999945" y="365.12999999999994" as="sourcePoint" />
            <mxPoint x="-37.809999999999945" y="345.12999999999994" as="targetPoint" />
          </mxGeometry>
        </mxCell>
        <mxCell id="VipYrZMZVy-3Rap9Ppn6-43" value="" style="endArrow=none;html=1;rounded=0;exitX=0.5;exitY=0;exitDx=0;exitDy=0;" parent="1" edge="1">
          <mxGeometry width="50" height="50" relative="1" as="geometry">
            <mxPoint x="86.90000000000008" y="362.4099999999999" as="sourcePoint" />
            <mxPoint x="86.90000000000008" y="345.4099999999999" as="targetPoint" />
          </mxGeometry>
        </mxCell>
        <mxCell id="VipYrZMZVy-3Rap9Ppn6-44" value="" style="endArrow=none;html=1;rounded=0;" parent="1" edge="1">
          <mxGeometry width="50" height="50" relative="1" as="geometry">
            <mxPoint x="-38.309999999999945" y="345.12999999999994" as="sourcePoint" />
            <mxPoint x="26.5" y="345" as="targetPoint" />
          </mxGeometry>
        </mxCell>
        <mxCell id="VipYrZMZVy-3Rap9Ppn6-45" value="" style="endArrow=none;html=1;rounded=0;" parent="1" edge="1">
          <mxGeometry width="50" height="50" relative="1" as="geometry">
            <mxPoint x="47" y="345" as="sourcePoint" />
            <mxPoint x="87.39000000000009" y="345.12999999999994" as="targetPoint" />
          </mxGeometry>
        </mxCell>
        <mxCell id="VipYrZMZVy-3Rap9Ppn6-46" value="&lt;span style=&quot;font-size: 8px;&quot;&gt;(1,N)&lt;/span&gt;" style="text;html=1;align=center;verticalAlign=middle;whiteSpace=wrap;rounded=1;strokeColor=none;glass=0;" parent="1" vertex="1">
          <mxGeometry x="63.07000000000006" y="351.14000000000004" width="22.5" height="6.75" as="geometry" />
        </mxCell>
        <mxCell id="VipYrZMZVy-3Rap9Ppn6-47" value="&lt;font style=&quot;font-size: 8px;&quot;&gt;(1,1)&lt;/font&gt;" style="text;html=1;align=center;verticalAlign=middle;whiteSpace=wrap;rounded=1;strokeColor=none;glass=0;" parent="1" vertex="1">
          <mxGeometry x="63.69000000000006" y="404.58999999999986" width="22.5" height="6.75" as="geometry" />
        </mxCell>
        <mxCell id="VipYrZMZVy-3Rap9Ppn6-50" value="" style="endArrow=none;html=1;rounded=0;" parent="1" edge="1">
          <mxGeometry width="50" height="50" relative="1" as="geometry">
            <mxPoint x="26.14" y="345" as="sourcePoint" />
            <mxPoint x="26.57999999999999" y="283" as="targetPoint" />
          </mxGeometry>
        </mxCell>
        <mxCell id="VipYrZMZVy-3Rap9Ppn6-54" style="edgeStyle=orthogonalEdgeStyle;rounded=0;orthogonalLoop=1;jettySize=auto;html=1;exitX=0.75;exitY=1;exitDx=0;exitDy=0;endArrow=oval;endFill=0;" parent="1" edge="1">
          <mxGeometry relative="1" as="geometry">
            <mxPoint x="83.45000000000005" y="738.3100000000001" as="sourcePoint" />
            <mxPoint x="80" y="770" as="targetPoint" />
          </mxGeometry>
        </mxCell>
        <mxCell id="VipYrZMZVy-3Rap9Ppn6-55" value="&lt;span style=&quot;font-size: 8px;&quot;&gt;TIPO&lt;/span&gt;" style="text;html=1;align=center;verticalAlign=middle;whiteSpace=wrap;rounded=1;strokeColor=none;" parent="1" vertex="1">
          <mxGeometry x="60.15999999999997" y="766.2900000000002" width="40" height="20" as="geometry" />
        </mxCell>
        <mxCell id="esEqVlL6re1M1a8fyDZB-29" value="Avatar" style="whiteSpace=wrap;html=1;align=center;" parent="1" vertex="1">
          <mxGeometry x="-241.68" y="396.18" width="60" height="30" as="geometry" />
        </mxCell>
        <mxCell id="CBFuG56-VT5t1clKTnsl-1" style="edgeStyle=orthogonalEdgeStyle;rounded=0;orthogonalLoop=1;jettySize=auto;html=1;exitX=0.25;exitY=0;exitDx=0;exitDy=0;endArrow=oval;endFill=0;" parent="1" edge="1">
          <mxGeometry relative="1" as="geometry">
            <mxPoint x="340" y="153" as="targetPoint" />
            <mxPoint x="349.7899999999999" y="169.73000000000002" as="sourcePoint" />
            <Array as="points">
              <mxPoint x="350" y="160" />
              <mxPoint x="340" y="160" />
            </Array>
          </mxGeometry>
        </mxCell>
        <mxCell id="CBFuG56-VT5t1clKTnsl-2" value="&lt;font style=&quot;font-size: 8px;&quot;&gt;Mestiere&lt;/font&gt;" style="text;html=1;align=center;verticalAlign=middle;whiteSpace=wrap;rounded=1;strokeColor=none;" parent="1" vertex="1">
          <mxGeometry x="319.87" y="133.5" width="40" height="20" as="geometry" />
        </mxCell>
        <mxCell id="yQnAaSoMpUrkc9xmWRWM-1" style="edgeStyle=orthogonalEdgeStyle;rounded=0;orthogonalLoop=1;jettySize=auto;html=1;exitX=0;exitY=0;exitDx=0;exitDy=0;endArrow=oval;endFill=1;" parent="1" edge="1">
          <mxGeometry relative="1" as="geometry">
            <mxPoint x="-190.23" y="378.13" as="targetPoint" />
            <mxPoint x="-190.23" y="396.13" as="sourcePoint" />
            <Array as="points" />
          </mxGeometry>
        </mxCell>
        <mxCell id="yQnAaSoMpUrkc9xmWRWM-2" value="&lt;font style=&quot;font-size: 8px;&quot;&gt;Id_avatar&lt;/font&gt;" style="text;html=1;align=center;verticalAlign=middle;whiteSpace=wrap;rounded=1;strokeColor=none;" parent="1" vertex="1">
          <mxGeometry x="-204.67" y="354.63" width="30" height="23.5" as="geometry" />
        </mxCell>
        <mxCell id="yQnAaSoMpUrkc9xmWRWM-4" style="edgeStyle=orthogonalEdgeStyle;rounded=0;orthogonalLoop=1;jettySize=auto;html=1;exitX=0.25;exitY=0;exitDx=0;exitDy=0;entryX=-0.044;entryY=0.777;entryDx=0;entryDy=0;endArrow=oval;endFill=1;entryPerimeter=0;" parent="1" target="xFyrg9qpgeF3Z5DftNoa-35" edge="1">
          <mxGeometry relative="1" as="geometry">
            <mxPoint x="22.18000000000032" y="235.6" as="targetPoint" />
            <mxPoint x="18.609999999999943" y="253.10000000000002" as="sourcePoint" />
          </mxGeometry>
        </mxCell>
        <mxCell id="yQnAaSoMpUrkc9xmWRWM-5" value="&lt;font style=&quot;font-size: 8px;&quot;&gt;Id_civilta&lt;/font&gt;" style="text;html=1;align=center;verticalAlign=middle;whiteSpace=wrap;rounded=0;" parent="1" vertex="1">
          <mxGeometry x="-22.560000000000016" y="209.70999999999998" width="60" height="30" as="geometry" />
        </mxCell>
        <mxCell id="yQnAaSoMpUrkc9xmWRWM-7" style="edgeStyle=orthogonalEdgeStyle;rounded=0;orthogonalLoop=1;jettySize=auto;html=1;exitX=1;exitY=0.5;exitDx=0;exitDy=0;endArrow=oval;endFill=1;entryX=0.5;entryY=1;entryDx=0;entryDy=0;" parent="1" target="yQnAaSoMpUrkc9xmWRWM-9" edge="1">
          <mxGeometry relative="1" as="geometry">
            <mxPoint x="344.78" y="174" as="sourcePoint" />
            <mxPoint x="322" y="170" as="targetPoint" />
          </mxGeometry>
        </mxCell>
        <mxCell id="yQnAaSoMpUrkc9xmWRWM-9" value="&lt;font style=&quot;font-size: 8px;&quot;&gt;Id_esperienza&lt;/font&gt;" style="text;html=1;align=center;verticalAlign=middle;whiteSpace=wrap;rounded=1;strokeColor=none;" parent="1" vertex="1">
          <mxGeometry x="289.94" y="146.98" width="40" height="20" as="geometry" />
        </mxCell>
        <mxCell id="sCdLPjGgIY4ofrzn0zne-1" value="Esperienza" style="whiteSpace=wrap;html=1;align=center;" parent="1" vertex="1">
          <mxGeometry x="342.85999999999996" y="169.73000000000002" width="90" height="28.75" as="geometry" />
        </mxCell>
        <mxCell id="yQnAaSoMpUrkc9xmWRWM-10" style="edgeStyle=orthogonalEdgeStyle;rounded=0;orthogonalLoop=1;jettySize=auto;html=1;exitX=1;exitY=0.5;exitDx=0;exitDy=0;endArrow=oval;endFill=1;entryX=0.5;entryY=1;entryDx=0;entryDy=0;" parent="1" edge="1">
          <mxGeometry relative="1" as="geometry">
            <mxPoint x="333.13" y="338.68" as="sourcePoint" />
            <mxPoint x="298.35" y="331.68" as="targetPoint" />
          </mxGeometry>
        </mxCell>
        <mxCell id="yQnAaSoMpUrkc9xmWRWM-13" value="&lt;font size=&quot;1&quot;&gt;Id_collezione&lt;/font&gt;" style="text;html=1;align=center;verticalAlign=middle;whiteSpace=wrap;rounded=0;" parent="1" vertex="1">
          <mxGeometry x="278.93" y="310.13" width="35" height="15" as="geometry" />
        </mxCell>
        <mxCell id="KGt15_m-9OCbbfXcBj1e-68" value="Collezione" style="whiteSpace=wrap;html=1;align=center;" parent="1" vertex="1">
          <mxGeometry x="324.87" y="333.25" width="90" height="28.75" as="geometry" />
        </mxCell>
        <mxCell id="yQnAaSoMpUrkc9xmWRWM-14" style="edgeStyle=orthogonalEdgeStyle;rounded=0;orthogonalLoop=1;jettySize=auto;html=1;endArrow=oval;endFill=1;" parent="1" edge="1">
          <mxGeometry relative="1" as="geometry">
            <mxPoint x="-66.80999999999999" y="483.74999999999994" as="sourcePoint" />
            <mxPoint x="-90" y="470" as="targetPoint" />
            <Array as="points">
              <mxPoint x="-66.80999999999999" y="483.74999999999994" />
            </Array>
          </mxGeometry>
        </mxCell>
        <mxCell id="yQnAaSoMpUrkc9xmWRWM-17" value="&lt;font style=&quot;font-size: 9px;&quot;&gt;Id_abito&lt;/font&gt;" style="text;html=1;align=center;verticalAlign=middle;whiteSpace=wrap;rounded=0;" parent="1" vertex="1">
          <mxGeometry x="-110.27999999999996" y="449.7199999999999" width="40" height="17" as="geometry" />
        </mxCell>
        <mxCell id="yQnAaSoMpUrkc9xmWRWM-18" style="edgeStyle=orthogonalEdgeStyle;rounded=0;orthogonalLoop=1;jettySize=auto;html=1;endArrow=oval;endFill=1;" parent="1" edge="1">
          <mxGeometry relative="1" as="geometry">
            <mxPoint x="124.07158730158719" y="480.4699999999999" as="sourcePoint" />
            <mxPoint x="140" y="480" as="targetPoint" />
            <Array as="points">
              <mxPoint x="124.07158730158719" y="480.4699999999999" />
            </Array>
          </mxGeometry>
        </mxCell>
        <mxCell id="yQnAaSoMpUrkc9xmWRWM-19" value="&lt;font style=&quot;font-size: 9px;&quot;&gt;Id_accessorio&lt;/font&gt;" style="text;html=1;align=center;verticalAlign=middle;whiteSpace=wrap;rounded=0;" parent="1" vertex="1">
          <mxGeometry x="153.44000000000003" y="469.0799999999999" width="40" height="17" as="geometry" />
        </mxCell>
        <mxCell id="N2UFPpM3rNno3gbZ0bzp-6" value="Area&lt;div&gt;Geografica&lt;/div&gt;" style="whiteSpace=wrap;html=1;align=center;" parent="1" vertex="1">
          <mxGeometry x="373.86" y="252.95000000000005" width="65.19" height="30.15" as="geometry" />
        </mxCell>
        <mxCell id="N2UFPpM3rNno3gbZ0bzp-11" style="edgeStyle=orthogonalEdgeStyle;rounded=0;orthogonalLoop=1;jettySize=auto;html=1;exitX=1;exitY=0.5;exitDx=0;exitDy=0;endArrow=none;endFill=0;" parent="1" source="N2UFPpM3rNno3gbZ0bzp-7" target="N2UFPpM3rNno3gbZ0bzp-6" edge="1">
          <mxGeometry relative="1" as="geometry" />
        </mxCell>
        <mxCell id="N2UFPpM3rNno3gbZ0bzp-7" value="Localizzazione" style="shape=rhombus;perimeter=rhombusPerimeter;whiteSpace=wrap;html=1;align=center;" parent="1" vertex="1">
          <mxGeometry x="233.44" y="244.20999999999998" width="102.98" height="47.79" as="geometry" />
        </mxCell>
        <mxCell id="N2UFPpM3rNno3gbZ0bzp-8" style="edgeStyle=orthogonalEdgeStyle;rounded=0;orthogonalLoop=1;jettySize=auto;html=1;exitX=1;exitY=0.5;exitDx=0;exitDy=0;endArrow=oval;endFill=1;" parent="1" edge="1">
          <mxGeometry relative="1" as="geometry">
            <mxPoint x="439.05" y="267.92" as="sourcePoint" />
            <mxPoint x="462.05" y="267.92" as="targetPoint" />
            <Array as="points">
              <mxPoint x="455.05" y="267.92" />
            </Array>
          </mxGeometry>
        </mxCell>
        <mxCell id="N2UFPpM3rNno3gbZ0bzp-9" value="&lt;font style=&quot;font-size: 8px;&quot;&gt;Nome&lt;/font&gt;" style="text;html=1;align=center;verticalAlign=middle;whiteSpace=wrap;rounded=1;strokeColor=none;" parent="1" vertex="1">
          <mxGeometry x="442.86" y="246.08" width="40" height="20" as="geometry" />
        </mxCell>
        <mxCell id="N2UFPpM3rNno3gbZ0bzp-12" value="&lt;font style=&quot;font-size: 8px;&quot;&gt;(1,N)&lt;/font&gt;" style="text;html=1;align=center;verticalAlign=middle;whiteSpace=wrap;rounded=1;strokeColor=none;glass=0;" parent="1" vertex="1">
          <mxGeometry x="203.76" y="248.58000000000004" width="50" height="15" as="geometry" />
        </mxCell>
        <mxCell id="N2UFPpM3rNno3gbZ0bzp-13" value="&lt;font style=&quot;font-size: 8px;&quot;&gt;(0,N)&lt;/font&gt;" style="text;html=1;align=center;verticalAlign=middle;whiteSpace=wrap;rounded=1;strokeColor=none;glass=0;" parent="1" vertex="1">
          <mxGeometry x="313.37" y="248.58000000000004" width="50" height="15" as="geometry" />
        </mxCell>
        <mxCell id="N6cnA5xkNYAy1G1XkkjX-3" style="edgeStyle=orthogonalEdgeStyle;rounded=0;orthogonalLoop=1;jettySize=auto;html=1;exitX=0.25;exitY=0;exitDx=0;exitDy=0;endArrow=oval;endFill=0;" parent="1" edge="1">
          <mxGeometry relative="1" as="geometry">
            <mxPoint x="-49.05" y="672.22" as="sourcePoint" />
            <mxPoint x="-46.96000000000001" y="685.3899999999999" as="targetPoint" />
          </mxGeometry>
        </mxCell>
        <mxCell id="N6cnA5xkNYAy1G1XkkjX-4" value="" style="endArrow=none;html=1;rounded=0;" parent="1" source="QMaH3NDAXjiI4MQNCzqP-19" target="QMaH3NDAXjiI4MQNCzqP-22" edge="1">
          <mxGeometry width="50" height="50" relative="1" as="geometry">
            <mxPoint x="-148" y="660" as="sourcePoint" />
            <mxPoint x="-7" y="660" as="targetPoint" />
            <Array as="points" />
          </mxGeometry>
        </mxCell>
        <mxCell id="QMaH3NDAXjiI4MQNCzqP-22" value="Interazione" style="whiteSpace=wrap;html=1;align=center;" parent="1" vertex="1">
          <mxGeometry x="-110.28000000000002" y="647.64" width="79" height="26.28" as="geometry" />
        </mxCell>
        <mxCell id="6bDpeAZw1deCwOBFI5wO-1" value="&lt;span style=&quot;font-size: 8px;&quot;&gt;Stato&lt;/span&gt;" style="text;html=1;align=center;verticalAlign=middle;whiteSpace=wrap;rounded=1;strokeColor=none;" parent="1" vertex="1">
          <mxGeometry x="314.87" y="20.140000000000008" width="50" height="21" as="geometry" />
        </mxCell>
        <mxCell id="6bDpeAZw1deCwOBFI5wO-2" style="edgeStyle=orthogonalEdgeStyle;rounded=0;orthogonalLoop=1;jettySize=auto;html=1;exitX=0.96;exitY=-0.006;exitDx=0;exitDy=0;endArrow=oval;endFill=0;exitPerimeter=0;" parent="1" source="esEqVlL6re1M1a8fyDZB-7" edge="1">
          <mxGeometry relative="1" as="geometry">
            <mxPoint x="314.13" y="37.50999999999999" as="sourcePoint" />
            <mxPoint x="340" y="40" as="targetPoint" />
            <Array as="points">
              <mxPoint x="313" y="40" />
              <mxPoint x="337" y="40" />
            </Array>
          </mxGeometry>
        </mxCell>
        <mxCell id="CsiTaZQl-b7PNT-iJMG8-1" value="" style="curved=1;endArrow=oval;html=1;rounded=0;endFill=1;" edge="1" parent="1">
          <mxGeometry width="50" height="50" relative="1" as="geometry">
            <mxPoint x="10" y="150" as="sourcePoint" />
            <mxPoint x="-59.61" y="191.88" as="targetPoint" />
            <Array as="points">
              <mxPoint x="-57.36" y="148.88" />
              <mxPoint x="-59.61" y="198.48000000000002" />
            </Array>
          </mxGeometry>
        </mxCell>
        <mxCell id="CsiTaZQl-b7PNT-iJMG8-2" value="" style="curved=1;endArrow=oval;html=1;rounded=0;endFill=1;" edge="1" parent="1">
          <mxGeometry width="50" height="50" relative="1" as="geometry">
            <mxPoint x="-50" y="640" as="sourcePoint" />
            <mxPoint x="-124.41" y="667.46" as="targetPoint" />
            <Array as="points">
              <mxPoint x="-50" y="640" />
              <mxPoint x="-74.33" y="639" />
              <mxPoint x="-124.32999999999998" y="639" />
            </Array>
          </mxGeometry>
        </mxCell>
        <mxCell id="CsiTaZQl-b7PNT-iJMG8-3" value="" style="curved=1;endArrow=oval;html=1;rounded=0;endFill=1;" edge="1" parent="1">
          <mxGeometry width="50" height="50" relative="1" as="geometry">
            <mxPoint x="-110" y="703" as="sourcePoint" />
            <mxPoint x="-185.82999999999998" y="730.76" as="targetPoint" />
            <Array as="points">
              <mxPoint x="-111.42" y="703.3" />
              <mxPoint x="-135.75" y="702.3" />
              <mxPoint x="-185.75" y="702.3" />
            </Array>
          </mxGeometry>
        </mxCell>
        <mxCell id="CsiTaZQl-b7PNT-iJMG8-5" style="edgeStyle=orthogonalEdgeStyle;rounded=0;orthogonalLoop=1;jettySize=auto;html=1;exitX=1;exitY=0;exitDx=0;exitDy=0;entryX=0.086;entryY=0.404;entryDx=0;entryDy=0;entryPerimeter=0;endArrow=oval;endFill=0;" edge="1" parent="1">
          <mxGeometry relative="1" as="geometry">
            <mxPoint x="-111" y="681" as="sourcePoint" />
            <mxPoint x="-89" y="681" as="targetPoint" />
          </mxGeometry>
        </mxCell>
        <mxCell id="CsiTaZQl-b7PNT-iJMG8-6" style="edgeStyle=orthogonalEdgeStyle;rounded=0;orthogonalLoop=1;jettySize=auto;html=1;exitX=1;exitY=1;exitDx=0;exitDy=0;endArrow=oval;endFill=0;" edge="1" parent="1">
          <mxGeometry relative="1" as="geometry">
            <mxPoint x="-110.58362007710925" y="694.1532645518722" as="sourcePoint" />
            <mxPoint x="-89.40999999999998" y="694.0100000000003" as="targetPoint" />
          </mxGeometry>
        </mxCell>
        <mxCell id="CsiTaZQl-b7PNT-iJMG8-7" value="&lt;font style=&quot;font-size: 8px;&quot;&gt;Data&lt;/font&gt;" style="text;html=1;align=center;verticalAlign=middle;whiteSpace=wrap;rounded=1;strokeColor=none;glass=0;" vertex="1" parent="1">
          <mxGeometry x="-91.40999999999998" y="675.9900000000001" width="30" height="6.5" as="geometry" />
        </mxCell>
        <mxCell id="CsiTaZQl-b7PNT-iJMG8-8" value="&lt;font style=&quot;font-size: 8px;&quot;&gt;Ora&lt;/font&gt;" style="text;html=1;align=center;verticalAlign=middle;whiteSpace=wrap;rounded=1;strokeColor=none;glass=0;" vertex="1" parent="1">
          <mxGeometry x="-92.55999999999999" y="687.0800000000003" width="30" height="11.5" as="geometry" />
        </mxCell>
        <mxCell id="CsiTaZQl-b7PNT-iJMG8-9" value="" style="endArrow=none;html=1;rounded=0;" edge="1" parent="1">
          <mxGeometry width="50" height="50" relative="1" as="geometry">
            <mxPoint x="-124.06" y="716.3700000000001" as="sourcePoint" />
            <mxPoint x="-124.06" y="696.3700000000001" as="targetPoint" />
          </mxGeometry>
        </mxCell>
        <mxCell id="1P0wnPybKFTleaGCKq55-33" value="InterazioneAvatar" style="whiteSpace=wrap;html=1;align=center;" parent="1" vertex="1">
          <mxGeometry x="-168.67" y="706.5700000000002" width="103" height="26.28" as="geometry" />
        </mxCell>
        <mxCell id="CsiTaZQl-b7PNT-iJMG8-4" value="&lt;p style=&quot;line-height: 110%;&quot;&gt;&lt;font style=&quot;font-size: 7px;&quot;&gt;DataIntAv&lt;/font&gt;&lt;/p&gt;" style="ellipse;whiteSpace=wrap;html=1;" vertex="1" parent="1">
          <mxGeometry x="-141.41" y="678.5800000000003" width="36.12" height="20" as="geometry" />
        </mxCell>
      </root>
    </mxGraphModel>
  </diagram>
</mxfile>
